<svg width="186" height="186" viewBox="0 0 186 186" fill="none" xmlns="http://www.w3.org/2000/svg">
<g opacity="0.48">
<path d="M162.75 34.875V151.125C162.75 154.208 161.525 157.165 159.345 159.345C157.165 161.525 154.208 162.75 151.125 162.75H98.8123C97.2707 162.75 95.7923 162.138 94.7022 161.048C93.6122 159.958 92.9998 158.479 92.9998 156.938C92.9998 155.396 93.6122 153.917 94.7022 152.827C95.7923 151.737 97.2707 151.125 98.8123 151.125H151.125V34.875H34.8748V104.625C34.8748 106.167 34.2624 107.645 33.1724 108.735C32.0823 109.825 30.6039 110.438 29.0623 110.438C27.5207 110.438 26.0423 109.825 24.9523 108.735C23.8622 107.645 23.2498 106.167 23.2498 104.625V34.875C23.2498 31.7919 24.4746 28.835 26.6547 26.6549C28.8348 24.4748 31.7917 23.25 34.8748 23.25H151.125C154.208 23.25 157.165 24.4748 159.345 26.6549C161.525 28.835 162.75 31.7919 162.75 34.875ZM91.2997 112.138C90.7598 111.597 90.1188 111.169 89.4132 110.876C88.7075 110.583 87.9512 110.433 87.1873 110.433C86.4235 110.433 85.6671 110.583 84.9615 110.876C84.2558 111.169 83.6148 111.597 83.075 112.138L46.4998 148.72L33.1747 135.388C32.6346 134.848 31.9935 134.419 31.2879 134.127C30.5823 133.835 29.826 133.684 29.0623 133.684C28.2986 133.684 27.5423 133.835 26.8367 134.127C26.1311 134.419 25.49 134.848 24.95 135.388C24.4099 135.928 23.9815 136.569 23.6893 137.274C23.397 137.98 23.2466 138.736 23.2466 139.5C23.2466 140.264 23.397 141.02 23.6893 141.726C23.9815 142.431 24.4099 143.072 24.95 143.612L42.3875 161.05C42.9273 161.59 43.5683 162.019 44.274 162.312C44.9796 162.604 45.736 162.755 46.4998 162.755C47.2637 162.755 48.02 162.604 48.7257 162.312C49.4313 162.019 50.0723 161.59 50.6122 161.05L91.2997 120.362C91.8401 119.823 92.2688 119.181 92.5613 118.476C92.8538 117.77 93.0044 117.014 93.0044 116.25C93.0044 115.486 92.8538 114.73 92.5613 114.024C92.2688 113.319 91.8401 112.677 91.2997 112.138Z" fill="white"/>
</g>
</svg>
