<svg width="186" height="186" viewBox="0 0 186 186" fill="none" xmlns="http://www.w3.org/2000/svg">
<g opacity="0.48">
<path d="M126.175 71.4502C126.715 71.99 127.144 72.631 127.437 73.3367C127.729 74.0423 127.88 74.7986 127.88 75.5625C127.88 76.3264 127.729 77.0827 127.437 77.7883C127.144 78.494 126.715 79.135 126.175 79.6748L85.4874 120.362C84.9476 120.903 84.3065 121.331 83.6009 121.624C82.8952 121.917 82.1389 122.067 81.375 122.067C80.6112 122.067 79.8548 121.917 79.1492 121.624C78.4436 121.331 77.8025 120.903 77.2627 120.362L59.8252 102.925C58.7345 101.834 58.1218 100.355 58.1218 98.8125C58.1218 97.2701 58.7345 95.7908 59.8252 94.7002C60.9158 93.6095 62.3951 92.9968 63.9375 92.9968C65.48 92.9968 66.9592 93.6095 68.0499 94.7002L81.375 108.033L117.95 71.4502C118.49 70.9097 119.131 70.481 119.837 70.1885C120.542 69.896 121.299 69.7454 122.063 69.7454C122.826 69.7454 123.583 69.896 124.288 70.1885C124.994 70.481 125.635 70.9097 126.175 71.4502ZM168.563 93C168.563 107.945 164.131 122.554 155.828 134.98C147.525 147.406 135.724 157.091 121.917 162.811C108.109 168.53 92.9162 170.026 78.2585 167.111C63.6008 164.195 50.1369 156.998 39.5693 146.431C29.0017 135.863 21.805 122.399 18.8894 107.742C15.9739 93.0838 17.4702 77.8907 23.1894 64.0835C28.9085 50.2762 38.5936 38.475 51.0198 30.1721C63.4459 21.8692 78.0552 17.4375 93 17.4375C113.034 17.4587 132.241 25.4265 146.407 39.5926C160.574 53.7587 168.541 72.9661 168.563 93ZM156.938 93C156.938 80.3544 153.188 67.9927 146.162 57.4782C139.137 46.9638 129.151 38.7687 117.468 33.9295C105.785 29.0902 92.9291 27.824 80.5264 30.291C68.1238 32.7581 56.7312 38.8475 47.7894 47.7894C38.8476 56.7312 32.7581 68.1238 30.2911 80.5264C27.824 92.9291 29.0902 105.785 33.9295 117.468C38.7688 129.151 46.9638 139.137 57.4783 146.162C67.9927 153.188 80.3544 156.938 93 156.938C109.951 156.918 126.203 150.176 138.189 138.189C150.176 126.203 156.918 109.951 156.938 93Z" fill="white"/>
</g>
</svg>
