<svg preserveAspectRatio="none" width="100%" height="100%" overflow="visible" style="display: block;" viewBox="0 0 19.5 19.5" fill="none" xmlns="http://www.w3.org/2000/svg">
<path id="Vector" d="M9.75 0C7.82164 0 5.93657 0.571828 4.33319 1.64317C2.72982 2.71452 1.48013 4.23726 0.742179 6.01884C0.00422452 7.80042 -0.188858 9.76082 0.187348 11.6521C0.563554 13.5434 1.49215 15.2807 2.85571 16.6443C4.21928 18.0079 5.95656 18.9365 7.84787 19.3127C9.73919 19.6889 11.6996 19.4958 13.4812 18.7578C15.2627 18.0199 16.7855 16.7702 17.8568 15.1668C18.9282 13.5634 19.5 11.6784 19.5 9.75C19.497 7.16505 18.4688 4.68683 16.641 2.859C14.8132 1.03116 12.335 0.00297748 9.75 0ZM17.9644 9H14.2303C14.0625 5.57719 12.7444 3.15656 11.6634 1.725C13.3418 2.12804 14.852 3.04628 15.9821 4.35095C17.1123 5.65562 17.8058 7.28129 17.9653 9H17.9644ZM6.77157 10.5H12.7284C12.5119 14.4009 10.6444 16.7916 9.75 17.7188C8.85469 16.7906 6.98813 14.4 6.77157 10.5ZM6.77157 9C6.98813 5.09906 8.85563 2.70844 9.75 1.78125C10.6453 2.71219 12.5119 5.10281 12.7284 9H6.77157ZM7.83657 1.725C6.75563 3.15656 5.4375 5.57719 5.26969 9H1.53469C1.69425 7.28129 2.38773 5.65562 3.51788 4.35095C4.64803 3.04628 6.15818 2.12804 7.83657 1.725ZM1.53469 10.5H5.26969C5.44032 13.9228 6.75563 16.3434 7.83657 17.775C6.15818 17.372 4.64803 16.4537 3.51788 15.149C2.38773 13.8444 1.69425 12.2187 1.53469 10.5ZM11.6597 17.775C12.7406 16.3434 14.0559 13.9228 14.2266 10.5H17.9616C17.8022 12.2182 17.1093 13.8435 15.9799 15.1481C14.8505 16.4527 13.3411 17.3713 11.6634 17.775H11.6597Z" fill="var(--fill-0, #161616)"/>
</svg>
