<svg width="186" height="186" viewBox="0 0 186 186" fill="none" xmlns="http://www.w3.org/2000/svg">
<g opacity="0.48">
<path d="M156.785 85.8578C156.565 84.9262 156.118 84.0634 155.484 83.346C154.851 82.6286 154.05 82.0788 153.152 81.7455L111.295 66.0445L121.946 12.7656C122.188 11.5277 122.02 10.245 121.468 9.1109C120.916 7.97684 120.01 7.05302 118.887 6.47885C117.764 5.90468 116.485 5.71132 115.243 5.92794C114 6.14456 112.862 6.75941 112 7.6797L30.6247 94.8672C29.9638 95.5636 29.4857 96.4129 29.2331 97.3392C28.9805 98.2655 28.9613 99.2399 29.1772 100.175C29.3931 101.111 29.8373 101.978 30.4703 102.7C31.1032 103.422 31.9052 103.976 32.8044 104.313L74.6762 120.014L64.0539 173.234C63.8127 174.472 63.9807 175.755 64.5325 176.889C65.0843 178.023 65.99 178.947 67.1129 179.521C68.2358 180.095 69.515 180.289 70.7574 180.072C71.9999 179.855 73.1382 179.24 74.0005 178.32L155.376 91.1327C156.024 90.4361 156.492 89.5908 156.738 88.6711C156.984 87.7513 157 86.7853 156.785 85.8578ZM79.4643 155.484L87.0714 117.427C87.3436 116.077 87.1279 114.675 86.4626 113.469C85.7973 112.264 84.7256 111.333 83.4386 110.844L45.047 96.4221L106.529 30.5519L98.9289 68.6092C98.6566 69.959 98.8723 71.3615 99.5376 72.567C100.203 73.7725 101.275 74.7027 102.562 75.1919L140.924 89.5778L79.4643 155.484Z" fill="white"/>
</g>
</svg>
