<svg preserveAspectRatio="none" width="100%" height="100%" overflow="visible" style="display: block;" viewBox="0 0 31.4979 30.3747" fill="none" xmlns="http://www.w3.org/2000/svg">
<path id="Vector" d="M31.3837 11.427C31.243 10.9946 30.9776 10.6135 30.6207 10.3317C30.2639 10.05 29.8316 9.8801 29.3784 9.84355L21.0815 9.17418L17.8781 1.42715C17.7048 1.00502 17.41 0.643935 17.031 0.389811C16.652 0.135687 16.206 0 15.7497 0C15.2934 0 14.8474 0.135687 14.4684 0.389811C14.0894 0.643935 13.7946 1.00502 13.6213 1.42715L10.4207 9.17277L2.11962 9.84355C1.66565 9.88195 1.23311 10.0535 0.876179 10.3366C0.519251 10.6197 0.253816 11.0019 0.113128 11.4352C-0.0275599 11.8686 -0.0372431 12.3338 0.0852914 12.7726C0.207826 13.2114 0.457129 13.6042 0.801965 13.902L7.13009 19.3625L5.20212 27.5271C5.0943 27.9707 5.1207 28.4363 5.27797 28.8649C5.43525 29.2934 5.71631 29.6655 6.08547 29.934C6.45463 30.2026 6.89525 30.3553 7.3514 30.373C7.80754 30.3906 8.25864 30.2723 8.64743 30.0331L15.749 25.6625L22.8548 30.0331C23.2437 30.2695 23.6939 30.3855 24.1486 30.3665C24.6033 30.3476 25.0423 30.1945 25.4102 29.9266C25.7781 29.6586 26.0585 29.2878 26.2161 28.8609C26.3737 28.4339 26.4015 27.9699 26.2959 27.5271L24.3609 19.3611L30.689 13.9006C31.0366 13.6033 31.2882 13.2096 31.4119 12.7693C31.5355 12.3289 31.5257 11.8618 31.3837 11.427ZM29.2265 12.1962L22.3781 18.1025C22.2219 18.2371 22.1057 18.412 22.0422 18.6082C21.9787 18.8044 21.9704 19.0142 22.0181 19.2148L24.1106 28.0461C24.116 28.0582 24.1165 28.072 24.1121 28.0846C24.1076 28.0971 24.0985 28.1075 24.0867 28.1136C24.0613 28.1332 24.0543 28.129 24.0332 28.1136L16.3382 23.3815C16.161 23.2726 15.957 23.2149 15.749 23.2149C15.541 23.2149 15.337 23.2726 15.1598 23.3815L7.46478 28.1164C7.44368 28.129 7.43806 28.1332 7.41134 28.1164C7.39947 28.1103 7.39038 28.0999 7.38593 28.0874C7.38148 28.0748 7.38202 28.061 7.38743 28.0489L9.47993 19.2176C9.52762 19.017 9.51927 18.8072 9.45578 18.611C9.39229 18.4148 9.27611 18.2399 9.11993 18.1053L2.2715 12.199C2.25462 12.185 2.23915 12.1723 2.25321 12.1287C2.26728 12.0851 2.27853 12.0907 2.29962 12.0879L11.2884 11.3623C11.4945 11.3446 11.6918 11.2704 11.8586 11.1479C12.0253 11.0253 12.155 10.8591 12.2334 10.6676L15.6956 2.28496C15.7068 2.26105 15.711 2.2498 15.7448 2.2498C15.7785 2.2498 15.7827 2.26105 15.794 2.28496L19.2646 10.6676C19.3437 10.8592 19.4743 11.0252 19.6418 11.1473C19.8093 11.2694 20.0072 11.3428 20.2138 11.3595L29.2026 12.0851C29.2237 12.0851 29.2363 12.0851 29.249 12.1259C29.2617 12.1667 29.249 12.1821 29.2265 12.1962Z" fill="var(--fill-0, #161616)"/>
</svg>
