<svg width="16" height="16" viewBox="0 0 16 16" fill="none" xmlns="http://www.w3.org/2000/svg">
<path d="M14.6431 7.1779L11.8306 9.60478L12.6875 13.2342C12.7347 13.4312 12.7226 13.6378 12.6525 13.8279C12.5824 14.018 12.4575 14.1831 12.2937 14.3022C12.1298 14.4214 11.9343 14.4894 11.7319 14.4975C11.5294 14.5056 11.3291 14.4536 11.1562 14.3479L7.99996 12.4054L4.84184 14.3479C4.66898 14.453 4.4689 14.5045 4.2668 14.4961C4.06469 14.4877 3.8696 14.4196 3.70609 14.3006C3.54257 14.1815 3.41795 14.0167 3.3479 13.8269C3.27786 13.6372 3.26553 13.4309 3.31246 13.2342L4.17246 9.60478L1.35996 7.1779C1.20702 7.04572 1.09641 6.87141 1.04195 6.67674C0.987486 6.48207 0.99158 6.27567 1.05372 6.08332C1.11586 5.89096 1.23329 5.72118 1.39135 5.59517C1.54941 5.46915 1.7411 5.3925 1.94246 5.37478L5.62996 5.07728L7.05246 1.63478C7.12946 1.44716 7.26051 1.28668 7.42894 1.17374C7.59738 1.06079 7.7956 1.00049 7.9984 1.00049C8.2012 1.00049 8.39942 1.06079 8.56785 1.17374C8.73629 1.28668 8.86734 1.44716 8.94434 1.63478L10.3662 5.07728L14.0537 5.37478C14.2555 5.39184 14.4477 5.46807 14.6064 5.5939C14.765 5.71974 14.883 5.8896 14.9455 6.08219C15.008 6.27477 15.0123 6.48153 14.9579 6.67656C14.9034 6.87158 14.7926 7.0462 14.6393 7.17853L14.6431 7.1779Z" fill="#FECC00"/>
</svg>
