<svg preserveAspectRatio="none" width="100%" height="100%" overflow="visible" style="display: block;" viewBox="0 0 33.75 23.6338" fill="none" xmlns="http://www.w3.org/2000/svg">
<path id="Vector" d="M33.6684 8.57812L31.6997 3.65625C31.5327 3.23982 31.2444 2.88314 30.8724 2.63241C30.5003 2.38168 30.0615 2.24846 29.6128 2.25H24.75V1.125C24.75 0.826631 24.6315 0.540484 24.4205 0.329505C24.2095 0.118527 23.9234 0 23.625 0H2.25C1.65326 0 1.08097 0.237053 0.65901 0.65901C0.237053 1.08097 0 1.65326 0 2.25V18C0 18.5967 0.237053 19.169 0.65901 19.591C1.08097 20.0129 1.65326 20.25 2.25 20.25H4.64062C4.88846 21.218 5.45141 22.0759 6.24072 22.6886C7.03003 23.3013 8.00081 23.6338 9 23.6338C9.99919 23.6338 10.97 23.3013 11.7593 22.6886C12.5486 22.0759 13.1115 21.218 13.3594 20.25H20.3906C20.6385 21.218 21.2014 22.0759 21.9907 22.6886C22.78 23.3013 23.7508 23.6338 24.75 23.6338C25.7492 23.6338 26.72 23.3013 27.5093 22.6886C28.2986 22.0759 28.8615 21.218 29.1094 20.25H31.5C32.0967 20.25 32.669 20.0129 33.091 19.591C33.5129 19.169 33.75 18.5967 33.75 18V9C33.7504 8.85542 33.7227 8.71214 33.6684 8.57812ZM24.75 4.5H29.6128L30.9628 7.875H24.75V4.5ZM2.25 2.25H22.5V11.25H2.25V2.25ZM9 21.375C8.55499 21.375 8.11998 21.243 7.74997 20.9958C7.37996 20.7486 7.09157 20.3972 6.92127 19.986C6.75097 19.5749 6.70642 19.1225 6.79323 18.686C6.88005 18.2496 7.09434 17.8487 7.40901 17.534C7.72368 17.2193 8.12459 17.005 8.56105 16.9182C8.9975 16.8314 9.4499 16.876 9.86104 17.0463C10.2722 17.2166 10.6236 17.505 10.8708 17.875C11.118 18.245 11.25 18.68 11.25 19.125C11.25 19.7217 11.0129 20.294 10.591 20.716C10.169 21.1379 9.59674 21.375 9 21.375ZM20.3906 18H13.3594C13.1115 17.032 12.5486 16.1741 11.7593 15.5614C10.97 14.9487 9.99919 14.6162 9 14.6162C8.00081 14.6162 7.03003 14.9487 6.24072 15.5614C5.45141 16.1741 4.88846 17.032 4.64062 18H2.25V13.5H22.5V15.2311C21.9827 15.5301 21.5299 15.9288 21.1678 16.4041C20.8057 16.8794 20.5415 17.4219 20.3906 18ZM24.75 21.375C24.305 21.375 23.87 21.243 23.5 20.9958C23.13 20.7486 22.8416 20.3972 22.6713 19.986C22.501 19.5749 22.4564 19.1225 22.5432 18.686C22.63 18.2496 22.8443 17.8487 23.159 17.534C23.4737 17.2193 23.8746 17.005 24.311 16.9182C24.7475 16.8314 25.1999 16.876 25.611 17.0463C26.0222 17.2166 26.3736 17.505 26.6208 17.875C26.868 18.245 27 18.68 27 19.125C27 19.7217 26.7629 20.294 26.341 20.716C25.919 21.1379 25.3467 21.375 24.75 21.375ZM31.5 18H29.1094C28.8586 17.0344 28.2945 16.1792 27.5057 15.5685C26.7168 14.9578 25.7477 14.6259 24.75 14.625V10.125H31.5V18Z" fill="var(--fill-0, #161616)"/>
</svg>
