<svg width="126" height="32" viewBox="0 0 126 32" fill="none" xmlns="http://www.w3.org/2000/svg">
<g clip-path="url(#clip0_2016_3810)">
<path d="M48.1448 0.718994L37.271 29.162H43.1174L45.3728 23.2212H56.9144L59.1572 29.162H64.9532L54.1172 0.718994H48.1448ZM47.351 17.9992L51.1562 7.99688L54.9362 17.9992H47.351Z" fill="black"/>
<path d="M115.668 8.81677C113.627 8.81677 111.624 9.42221 109.923 10.5574C108.222 11.6926 106.899 13.3071 106.117 15.1991C105.336 17.0911 105.135 19.1723 105.525 21.1778C105.928 23.1833 106.911 25.0249 108.36 26.4754C109.809 27.926 111.649 28.9098 113.652 29.3134C115.656 29.7171 117.735 29.5026 119.625 28.7206C121.515 27.9386 123.127 26.6142 124.261 24.9114C125.395 23.2086 126 21.2031 126 19.1597C126 16.41 124.917 13.7864 122.976 11.844C121.036 9.91413 118.402 8.81677 115.668 8.81677ZM115.668 24.2176C114.673 24.2176 113.703 23.9275 112.871 23.3725C112.039 22.8176 111.397 22.0355 111.019 21.1148C110.641 20.194 110.54 19.1849 110.729 18.2011C110.918 17.2172 111.397 16.3217 112.102 15.6154C112.808 14.909 113.703 14.4297 114.685 14.2405C115.668 14.0513 116.676 14.1396 117.596 14.5306C118.516 14.909 119.297 15.5523 119.851 16.3848C120.406 17.2172 120.696 18.1885 120.696 19.1849C120.696 19.8408 120.57 20.5093 120.318 21.1148C120.066 21.7328 119.7 22.2878 119.221 22.7545C118.755 23.2212 118.201 23.5996 117.583 23.8519C116.979 24.0789 116.323 24.2176 115.668 24.2176Z" fill="black"/>
<path d="M71.9208 21.821L67.2084 9.1825H61.6392L69.237 29.162H74.7684L82.2276 9.1825H76.6584L71.9208 21.821Z" fill="black"/>
<path d="M99.7543 3.87231H94.4497V9.18252H91.3501V13.9504H94.4497V22.4517C94.4497 27.27 97.1083 29.3386 100.838 29.3386C102.098 29.3512 103.358 29.1116 104.53 28.6197V23.6752C103.9 23.9149 103.232 24.0284 102.552 24.041C100.939 24.041 99.7669 23.4104 99.7669 21.2535V13.9504H104.53V9.18252H99.7669V3.87231H99.7543Z" fill="black"/>
<path d="M86.5747 7.74458C88.7041 7.74458 90.4429 6.01655 90.4429 3.87229C90.4429 1.74064 88.7167 0 86.5747 0C84.4453 0 82.7065 1.72803 82.7065 3.87229C82.7191 6.00394 84.4453 7.74458 86.5747 7.74458Z" fill="black"/>
<path d="M89.2333 9.1825H83.9287V29.162H89.2333V9.1825Z" fill="black"/>
<path d="M10.3446 32C16.0524 32 20.6892 27.3709 20.6892 21.6445C20.6892 15.9306 16.065 11.2889 10.3446 11.2889C4.6242 11.3016 0 15.9306 0 21.6445C0 27.3583 4.6242 32 10.3446 32Z" fill="#04E061"/>
<path d="M28.2745 30.6882C31.7269 30.6882 34.5241 27.888 34.5241 24.432C34.5241 20.9759 31.7269 18.1758 28.2745 18.1758C24.8221 18.1758 22.0249 20.9759 22.0249 24.432C22.0249 27.888 24.8221 30.6882 28.2745 30.6882Z" fill="#FF4053"/>
<path d="M12.3228 9.95186C14.4522 9.95186 16.191 8.22383 16.191 6.07957C16.191 3.9353 14.4648 2.20728 12.3228 2.20728C10.1934 2.20728 8.45459 3.9353 8.45459 6.07957C8.45459 8.22383 10.1808 9.95186 12.3228 9.95186Z" fill="#965EEB"/>
<path d="M25.8554 16.8262C30.4922 16.8262 34.2596 13.0548 34.2596 8.41309C34.2596 3.77138 30.4922 0 25.8554 0C21.2186 0 17.4512 3.77138 17.4512 8.41309C17.4386 13.0674 21.206 16.8262 25.8554 16.8262Z" fill="#00AAFF"/>
</g>
<defs>
<clipPath id="clip0_2016_3810">
<rect width="126" height="32" fill="white"/>
</clipPath>
</defs>
</svg>
