<svg width="64" height="64" viewBox="0 0 64 64" fill="none" xmlns="http://www.w3.org/2000/svg">
<g clip-path="url(#clip0_2008_3627)">
<path d="M62 3H2.5V61H62V3Z" fill="white"/>
<path d="M5 0C2.2385 0 0 2.2385 0 5V59C0 61.7615 2.2385 64 5 64H59C61.7605 64 64 61.7615 64 59V5C64 2.2385 61.7605 0 59 0H5ZM60.4845 7.9665V56.034C60.4845 58.492 58.4915 60.4845 56.0345 60.4845H7.9665C5.508 60.4845 3.516 58.492 3.516 56.034V7.9665C3.516 5.5085 5.5085 3.516 7.9665 3.516H56.034C58.491 3.5155 60.4845 5.508 60.4845 7.9665Z" fill="#0066FF"/>
<g clip-path="url(#clip1_2008_3627)">
<path d="M17.7438 26.4202C17.1536 28.0121 15.6257 29.1434 13.831 29.1434C11.5271 29.1434 9.65152 27.2768 9.65152 24.9737V24.0848C9.65152 21.7818 11.519 19.9152 13.831 19.9152C15.6257 19.9152 17.1536 21.0465 17.7438 22.6303H19.7325C19.0777 19.9636 16.6848 18 13.823 18C10.468 18 7.74365 20.7232 7.74365 24.0768V24.9818C7.75174 28.3273 10.468 31.0424 13.823 31.0424C16.6848 31.0424 19.0777 29.0707 19.7325 26.4202H17.7438Z" fill="#0066FF"/>
<path d="M52.0774 32.9495C48.7224 32.9495 45.998 35.6727 45.998 39.0262V39.9313C46.0061 43.2767 48.7224 45.9919 52.0774 45.9919C55.4323 45.9919 58.1567 43.2687 58.1567 39.9151V39.0262C58.1567 35.6727 55.4323 32.9495 52.0774 32.9495ZM56.2569 39.9151C56.2569 42.2182 54.3894 44.0848 52.0774 44.0848C49.7734 44.0848 47.8978 42.2182 47.8978 39.9151V39.0262C47.8978 36.7232 49.7653 34.8565 52.0774 34.8565C54.3814 34.8565 56.2569 36.7232 56.2569 39.0262V39.9151Z" fill="#0066FF"/>
<path d="M37.0571 18H38.965V31.0424H37.0571V18Z" fill="#0066FF"/>
<path d="M39.0617 32.9495H36.9517L31.9233 46H39.9994L39.2719 44.0929H34.7043L38.0107 35.5192L42.0447 46H44.09L39.0617 32.9495Z" fill="#0066FF"/>
<path d="M26.9434 29.1434H28.8512V42.1939H26.9434V29.1434Z" fill="#0066FF"/>
<path d="M28.9487 44.0929H26.8387L26.103 46H29.6843L28.9487 44.0929Z" fill="#0066FF"/>
<path d="M21.8101 27.2364H29.8862L29.1505 25.3293H24.591L27.4124 18H25.3671L21.8101 27.2364Z" fill="#0066FF"/>
<path d="M28.3745 18L31.9316 27.2364H33.9769L30.4198 18H28.3745Z" fill="#0066FF"/>
<path d="M18.0025 32.9495V43.0101L9.65961 32.9495H7.74365V46H9.65152V35.9232L18.0025 46H19.9104V32.9495H18.0025Z" fill="#0066FF"/>
</g>
</g>
<defs>
<clipPath id="clip0_2008_3627">
<rect width="64" height="64" fill="white"/>
</clipPath>
<clipPath id="clip1_2008_3627">
<rect width="50.5" height="28" fill="white" transform="translate(7.7002 18)"/>
</clipPath>
</defs>
</svg>
