<svg width="64" height="64" viewBox="0 0 64 64" fill="none" xmlns="http://www.w3.org/2000/svg">
<g clip-path="url(#clip0_2008_3612)">
<path d="M62 3H2.5V61H62V3Z" fill="white"/>
<path d="M5 0C2.2385 0 0 2.2385 0 5V59C0 61.7615 2.2385 64 5 64H59C61.7605 64 64 61.7615 64 59V5C64 2.2385 61.7605 0 59 0H5ZM60.5 7.9505V56.0485C60.5 58.5065 58.508 60.499 56.05 60.499H7.9505C5.4925 60.5 3.5 58.5075 3.5 56.0495V7.951C3.5 5.493 5.4925 3.5005 7.9505 3.5005H56.049C58.508 3.5 60.5 5.4925 60.5 7.9505Z" fill="#233F8A"/>
<path d="M11.9506 26.0245L12.3976 26.542H24.9446L25.3681 24.9075H10.8101L10.5161 26.0245H11.9506Z" fill="#E04C26"/>
<path d="M56.1414 29.27L56.7409 26.9535L54.8944 25.1775H51.7079L48.7804 26.906L56.0244 26.9175L55.8829 27.4935L48.6399 27.505C48.4994 28.081 48.3344 28.6455 48.1924 29.2335L51.0849 29.245C51.0144 29.4095 50.9789 29.598 50.9314 29.774L48.0634 29.7855C47.9099 30.361 47.7579 30.938 47.6159 31.5255L54.8589 31.5375C54.8004 31.7255 54.7419 31.914 54.6949 32.102L47.8279 32.115C48.2274 32.5385 48.6384 32.938 49.0259 33.35L51.7309 33.361C51.7069 33.538 51.6369 33.7025 51.6139 33.8785L54.2594 33.8905C54.2119 34.0785 54.1539 34.255 54.1064 34.4315H51.4604L51.2834 35.113L50.2139 35.1015L50.3774 34.4315L46.8734 34.443L46.4024 36.2305L53.6594 36.242L53.5184 36.771H46.2759L46.2874 36.782L48.3444 38.3225H51.5429L54.2239 36.782L55.5174 31.714L53.8714 30.209L51.4849 30.197C51.6254 29.6215 51.7664 29.033 51.9314 28.4685L53.0124 28.48C52.9429 28.7505 52.8724 29.009 52.8014 29.2795L56.1414 29.27Z" fill="#233F8A"/>
<path d="M31.9059 33.374V33.3625L32.7179 30.211L29.6604 30.1995C29.8014 29.6235 29.9424 29.0355 30.1189 28.459H33.1759V28.4475L34.0109 25.226H27.1789L26.7319 26.966L32.7999 26.9775C32.7519 27.1655 32.7169 27.3535 32.6574 27.542H26.5914L26.1324 29.2825L29.0604 29.294L28.9194 29.8235H25.9914C25.8504 30.399 25.6859 30.976 25.5444 31.5635L31.6124 31.575C31.5654 31.763 31.5299 31.9625 31.4709 32.1395H25.4034L24.9449 33.892L27.8729 33.9035L27.7319 34.444H24.8044C24.6514 35.0435 24.4984 35.6555 24.3459 36.2435L30.4369 36.255L30.2839 36.796L24.2159 36.808L23.8164 38.3365H30.6484V38.3255L31.4599 35.1385L28.3909 35.127C28.5439 34.539 28.6849 33.963 28.8494 33.375H31.9059V33.374Z" fill="#233F8A"/>
<path d="M41.407 36.784C41.266 37.301 41.1475 37.8185 41.0075 38.3245H44.2285L47.6035 25.2485H43.417L42.453 26.977L46.6155 26.9885L46.4745 27.5535L42.1105 27.565L41.1595 29.2825L46.016 29.294L45.8755 29.823H40.843L40.4785 30.4815L40.174 25.2015H35.916L35.4685 26.9415L39.644 26.9535V27.529H35.3045L34.857 29.2575L39.7715 29.2695L39.7605 29.8H34.7285L34.2805 31.5405L36.728 31.5515C36.68 31.7395 36.646 31.9395 36.5875 32.1165H34.14C33.9875 32.7155 33.8235 33.2925 33.682 33.88L36.128 33.892C36.07 34.0685 36.034 34.2565 35.987 34.433H33.53L33.072 36.244L35.541 36.2555L35.4 36.785H32.943L32.542 38.3135H35.7875L37.7985 30.588C37.81 30.9055 37.7985 31.2345 37.7985 31.564L41.749 31.5755C41.666 31.7635 41.5605 31.952 41.4675 32.14H37.7985V33.8925L40.574 33.9035C40.4795 34.0805 40.397 34.268 40.3035 34.4445H37.7985V36.244L39.3855 36.2555C39.292 36.4325 39.209 36.62 39.116 36.7965H37.7985V38.3255L39.0095 38.3135L42.9015 30.6465C42.8425 30.9405 42.7605 31.258 42.702 31.564L45.4415 31.5755C45.3835 31.7635 45.336 31.952 45.2885 32.14H42.595L42.1595 33.8925L44.8295 33.9035C44.795 34.0805 44.747 34.268 44.6885 34.4445L41.984 34.456L41.5605 36.2435L44.23 36.255L44.0895 36.7845H41.408L41.407 36.784Z" fill="#233F8A"/>
<path d="M7.25879 38.642L21.7928 38.6305L21.8638 38.407H7.30579L7.25879 38.642Z" fill="#E04C26"/>
<path d="M23.016 33.962H17.642L8.46998 33.974L8.37598 34.3855H19.1705L20.3465 35.7495H22.5455L23.016 33.962Z" fill="#E04C26"/>
<path d="M22.4162 36.2785L7.87024 36.267L7.82324 36.5135L21.0057 36.5255L22.0282 37.725L22.4162 36.2785Z" fill="#E04C26"/>
<path d="M24.7684 27.2355H10.2104L9.96338 28.1645H13.7964L14.4549 28.929H24.3214L24.7684 27.2355Z" fill="#E04C26"/>
<path d="M24.1681 29.5525H9.61058L9.43408 30.2695H15.6196L16.4546 31.234H23.7331L24.1681 29.5525Z" fill="#E04C26"/>
<path d="M23.5923 31.8101H9.03427L8.90527 32.2926H17.3713L18.3593 33.4446H23.1568L23.5923 31.8101Z" fill="#E04C26"/>
</g>
<defs>
<clipPath id="clip0_2008_3612">
<rect width="64" height="64" fill="white"/>
</clipPath>
</defs>
</svg>
