<svg width="64" height="64" viewBox="0 0 64 64" fill="none" xmlns="http://www.w3.org/2000/svg">
<g clip-path="url(#clip0_2008_3643)">
<path d="M62 3H2.5V61H62V3Z" fill="white"/>
<path d="M5 0C2.2385 0 0 2.2385 0 5V59C0 61.7615 2.2385 64 5 64H59C61.7605 64 64 61.7615 64 59V5C64 2.2385 61.7605 0 59 0H5ZM60.4845 7.9665V56.034C60.4845 58.492 58.4915 60.4845 56.0345 60.4845H7.9665C5.508 60.4845 3.516 58.492 3.516 56.034V7.9665C3.516 5.5085 5.5085 3.516 7.9665 3.516H56.034C58.491 3.5155 60.4845 5.508 60.4845 7.9665Z" fill="#FECC00"/>
<g clip-path="url(#clip1_2008_3643)">
<path d="M-12.7998 42V22H77.2002V42H-12.7998Z" fill="#FECC00"/>
<path d="M16.2182 30.3567C15.8249 30.8929 15.1668 31.8252 14.7664 32.3698C14.5631 32.6467 14.1959 33.1494 15.4131 33.1494C16.7011 33.1494 21.822 33.1494 21.822 33.1494C21.822 33.1494 22.8549 31.7345 23.7209 30.5511C24.8987 28.9412 23.8228 25.5916 19.6118 25.5916C15.8428 25.5916 3.02809 25.5916 3.02809 25.5916L0.152661 29.5254C0.152661 29.5254 15.0593 29.5254 15.8244 29.5254C16.6156 29.5254 16.6048 29.8286 16.2182 30.3567ZM11.5099 34.1199C10.2927 34.1199 10.6599 33.6161 10.8632 33.3392C11.2636 32.7947 11.9324 31.8722 12.3257 31.3359C12.7129 30.8079 12.7231 30.5047 11.9309 30.5047C11.1663 30.5047 4.76358 30.5047 4.76358 30.5047L-1.01133 38.4075C-1.01133 38.4075 9.30281 38.4075 13.0718 38.4075C17.7232 38.4075 20.3129 35.2218 21.1113 34.1204C21.1113 34.1199 12.7974 34.1199 11.5099 34.1199ZM20.6714 38.4075H28.933L32.065 34.1194L23.8044 34.1204C23.8018 34.1199 20.6714 38.4075 20.6714 38.4075ZM41.9874 25.5916L38.8185 29.9256H35.1314L38.2988 25.5916H30.0397L24.5141 33.1494H44.7215L50.2455 25.5916H41.9874ZM32.6201 38.4075H40.8787L44.0122 34.1204H35.7536C35.7506 34.1199 32.6201 38.4075 32.6201 38.4075ZM-12.7998 35.8112V36.7219H-1.29401L-0.62931 35.8112H-12.7998ZM0.607404 34.1199H-12.7998V35.0295H-0.058835L0.607404 34.1199ZM-12.7998 38.4075H-2.52663L-1.865 37.502H-12.7998V38.4075ZM65.0758 36.7213H77.2002V35.8107H65.7415L65.0758 36.7213ZM63.8442 38.4075H77.2002V37.502H64.5053L63.8442 38.4075ZM66.9762 34.1199L66.312 35.0305H77.2002V34.1199H66.9762ZM56.1586 33.1494L61.6837 25.5916H52.9365C52.9335 25.5916 47.4074 33.1494 47.4074 33.1494H56.1586ZM46.6992 34.1199C46.6992 34.1199 46.0954 34.9506 45.802 35.3507C44.765 36.7616 45.6822 38.4075 49.0671 38.4075C52.9775 38.4075 62.331 38.4075 62.331 38.4075L65.4645 34.1204L46.6992 34.1199Z" fill="#D50029"/>
</g>
</g>
<defs>
<clipPath id="clip0_2008_3643">
<rect width="64" height="64" fill="white"/>
</clipPath>
<clipPath id="clip1_2008_3643">
<rect width="90" height="20" fill="white" transform="translate(-12.7998 22)"/>
</clipPath>
</defs>
</svg>
