<svg width="117" height="24" viewBox="0 0 117 24" fill="none" xmlns="http://www.w3.org/2000/svg">
<path d="M0 17.1198V1.54839H4.05092V17.3621C4.05092 17.5843 4.13629 17.6954 4.30701 17.6954H8.63731C8.80804 17.6954 8.8934 17.5843 8.8934 17.3621V1.54839H12.9443V17.1198C12.9443 20.6743 11.5785 22.4516 8.84684 22.4516H4.09748C1.36583 22.4516 0 20.6743 0 17.1198Z" fill="#161616"/>
<path d="M16.441 22.4516V1.54839H24.3566C27.0883 1.54839 28.4541 3.32567 28.4541 6.88023V11.0003C28.4541 14.5346 27.0883 16.3018 24.3566 16.3018H20.492V22.4516H16.441ZM20.492 11.5456H24.1471C24.3178 11.5456 24.4032 11.4345 24.4032 11.2123V6.63787C24.4032 6.41571 24.3178 6.30463 24.1471 6.30463H20.492V11.5456Z" fill="#161616"/>
<path d="M30.4936 15.3627V11.0609H37.7107V15.3627H30.4936Z" fill="#161616"/>
<path d="M38.6777 0H113.132C115.268 0 117 1.38647 117 3.09677V20.9032C117 22.6135 115.268 24 113.132 24H38.6777V0Z" fill="#161616"/>
<path d="M40.6116 20.6339V17.6954H47.8013C47.9708 17.6954 48.0556 17.5843 48.0556 17.3621V15.3021C48.0556 15.0194 47.9631 14.8578 47.7782 14.8174L43.5013 13.6662C41.5748 13.1815 40.6116 11.4951 40.6116 8.60701V6.88023C40.6116 3.32567 41.9678 1.54839 44.6804 1.54839H49.8126L51.6158 3.36606V6.30463H44.8884C44.7189 6.30463 44.6341 6.41571 44.6341 6.63787V8.57672C44.6341 8.83927 44.7266 9.00084 44.9115 9.06143L49.1884 10.152C51.1149 10.6771 52.0782 12.3736 52.0782 15.2415V17.1198C52.0782 20.6743 50.7219 22.4516 48.0094 22.4516H42.4148L40.6116 20.6339Z" fill="white"/>
<path d="M54.9864 22.4516V1.54839H59.0089V8.57672L63.8175 1.54839H67.6089L67.9788 2.5784L62.8003 10.152L68.5798 21.4216L68.21 22.4516H64.511L60.2111 13.9691L59.0089 15.605V22.4516H54.9864Z" fill="white"/>
<path d="M71.0156 22.4516V1.54839H75.0381V22.4516H71.0156Z" fill="white"/>
<path d="M78.6463 22.4516V1.54839H82.6689V17.6954H89.1189V22.4516H78.6463Z" fill="white"/>
<path d="M91.4697 22.4516V1.54839H95.4923V17.6954H101.942V22.4516H91.4697Z" fill="white"/>
<path d="M103.6 20.6339V17.6954H110.789C110.959 17.6954 111.044 17.5843 111.044 17.3621V15.3021C111.044 15.0194 110.951 14.8578 110.766 14.8174L106.489 13.6662C104.563 13.1815 103.6 11.4951 103.6 8.60701V6.88023C103.6 3.32567 104.956 1.54839 107.668 1.54839H112.801L114.604 3.36606V6.30463H107.876C107.707 6.30463 107.622 6.41571 107.622 6.63787V8.57672C107.622 8.83927 107.715 9.00084 107.899 9.06143L112.176 10.152C114.103 10.6771 115.066 12.3736 115.066 15.2415V17.1198C115.066 20.6743 113.71 22.4516 110.997 22.4516H105.403L103.6 20.6339Z" fill="white"/>
</svg>
