<svg width="112" height="20" viewBox="0 0 112 20" fill="none" xmlns="http://www.w3.org/2000/svg">
<g clip-path="url(#clip0_2025_304)">
<path d="M20.5865 2.13428H11.8213V17.8549H20.5865V2.13428Z" fill="#FF5F00"/>
<path d="M12.381 10C12.381 6.80447 13.8811 3.96648 16.2095 2.13408C14.5079 0.804469 12.3586 0 10.019 0C4.48896 0 0 4.48045 0 10C0 15.5196 4.48896 20 10.019 20C12.3586 20 14.5079 19.1955 16.2095 17.8659C13.8811 16.0335 12.381 13.1955 12.381 10Z" fill="#EB001B"/>
<path d="M32.419 10C32.419 15.5196 27.93 20 22.4 20C20.0603 20 17.911 19.1955 16.2095 17.8659C18.5379 16.0335 20.038 13.1955 20.038 10C20.038 6.80447 18.5379 3.96648 16.2095 2.13408C17.911 0.804469 20.0603 0 22.4 0C27.93 0 32.419 4.48045 32.419 10Z" fill="#F79E1B"/>
<path d="M49.6023 13.3522V9.18459C49.6023 7.62034 48.606 6.55889 46.9828 6.54771C46.132 6.53654 45.2588 6.79352 44.6431 7.73207C44.1842 6.99464 43.4565 6.54771 42.449 6.54771C41.7438 6.54771 41.0385 6.76001 40.5012 7.53096V6.71531H39.0571V13.3522H40.5124V9.67621C40.5124 8.52537 41.1505 7.91084 42.1356 7.91084C43.0983 7.91084 43.5797 8.53654 43.5797 9.66503V13.3634H45.0349V9.67621C45.0349 8.52537 45.7066 7.91084 46.6581 7.91084C47.6432 7.91084 48.1134 8.53654 48.1134 9.66503V13.3634H49.6023V13.3522ZM71.2187 6.71531H68.8566V4.70414H67.4014V6.71531H66.0468V8.03375H67.4014V11.0617C67.4014 12.6036 67.9947 13.5198 69.7074 13.5198C70.3343 13.5198 71.0619 13.3298 71.5209 13.0058L71.1067 11.7656C70.6701 12.0114 70.2 12.1455 69.8305 12.1455C69.1029 12.1455 68.8678 11.6986 68.8678 11.0393V8.03375H71.2298V6.71531H71.2187ZM83.5661 6.54771C82.7265 6.54771 82.1892 6.93878 81.8086 7.51978V6.71531H80.3757V13.3522H81.8198V9.63151C81.8198 8.53654 82.2899 7.92202 83.2414 7.92202C83.5325 7.92202 83.8347 7.96671 84.1482 8.08961L84.596 6.72649C84.2713 6.60358 83.8571 6.54771 83.5661 6.54771ZM64.905 7.24045C64.211 6.78235 63.2482 6.54771 62.196 6.54771C60.5168 6.54771 59.4309 7.35218 59.4309 8.67062C59.4309 9.75442 60.2369 10.4248 61.7258 10.6259L62.4087 10.7265C63.2035 10.8382 63.5729 11.0505 63.5729 11.4192C63.5729 11.9332 63.0467 12.2237 62.0616 12.2237C61.0653 12.2237 60.3377 11.8997 59.8451 11.531L59.1623 12.6594C59.9571 13.2405 60.9534 13.5198 62.0392 13.5198C63.9535 13.5198 65.0729 12.6148 65.0729 11.3522C65.0729 10.1902 64.1998 9.57565 62.7445 9.36336L62.0616 9.2628C61.4347 9.18459 60.931 9.05051 60.931 8.61475C60.931 8.13431 61.4012 7.83263 62.196 7.83263C63.0467 7.83263 63.8639 8.15665 64.2669 8.40246L64.905 7.24045ZM103.66 6.54771C102.82 6.54771 102.283 6.93878 101.903 7.51978V6.71531H100.47V13.3522H101.914V9.63151C101.914 8.53654 102.384 7.92202 103.335 7.92202C103.626 7.92202 103.929 7.96671 104.242 8.08961L104.69 6.72649C104.376 6.60358 103.951 6.54771 103.66 6.54771ZM85.0214 10.0337C85.0214 12.0449 86.4319 13.5198 88.57 13.5198C89.5663 13.5198 90.2379 13.2963 90.9656 12.7265L90.2715 11.5645C89.7342 11.9555 89.1633 12.1567 88.5364 12.1567C87.3834 12.1455 86.5326 11.3075 86.5326 10.0337C86.5326 8.76001 87.3834 7.92202 88.5364 7.91084C89.1633 7.91084 89.7342 8.12313 90.2715 8.50302L90.9656 7.34101C90.2379 6.77118 89.5775 6.54771 88.57 6.54771C86.4319 6.54771 85.0214 8.02258 85.0214 10.0337ZM98.5778 10.0337V6.71531H97.1337V7.51978C96.6747 6.9276 95.9807 6.54771 95.0292 6.54771C93.1597 6.54771 91.7044 8.00023 91.7044 10.0337C91.7044 12.0561 93.1597 13.5198 95.0292 13.5198C95.9807 13.5198 96.6747 13.1399 97.1337 12.5477V13.3522H98.5778V10.0337ZM93.1933 10.0337C93.1933 8.87174 93.9545 7.91084 95.2083 7.91084C96.4061 7.91084 97.2121 8.82705 97.2121 10.0337C97.2121 11.2405 96.4061 12.1567 95.2083 12.1567C93.9545 12.1567 93.1933 11.1958 93.1933 10.0337ZM75.73 6.54771C73.7822 6.54771 72.4165 7.96671 72.4165 10.0337C72.4165 12.1455 73.8381 13.5198 75.8196 13.5198C76.8159 13.5198 77.7338 13.274 78.551 12.5924L77.8457 11.5198C77.286 11.9667 76.5808 12.2125 75.9091 12.2125C74.98 12.2125 74.1292 11.7768 73.9165 10.5924H78.8532C78.8644 10.4136 78.8756 10.2349 78.8756 10.0337C78.8756 7.96671 77.5995 6.54771 75.73 6.54771ZM75.7076 7.8438C76.6367 7.8438 77.2412 8.42481 77.3868 9.45274H73.9389C74.0844 8.49185 74.6777 7.8438 75.7076 7.8438ZM112 10.0337V4.04492H110.556V7.51978C110.097 6.9276 109.403 6.54771 108.451 6.54771C106.582 6.54771 105.126 8.00023 105.126 10.0337C105.126 12.0561 106.582 13.5198 108.451 13.5198C109.392 13.5198 110.097 13.1399 110.556 12.5477V13.3522H112V10.0337ZM106.615 10.0337C106.615 8.87174 107.377 7.91084 108.63 7.91084C109.828 7.91084 110.634 8.82705 110.634 10.0337C110.634 11.2405 109.828 12.1567 108.63 12.1567C107.377 12.1567 106.615 11.1958 106.615 10.0337ZM57.763 10.0337V6.71531H56.3077V7.51978C55.8487 6.9276 55.1547 6.54771 54.2032 6.54771C52.3337 6.54771 50.8784 8.00023 50.8784 10.0337C50.8784 12.0561 52.3337 13.5198 54.2032 13.5198C55.1547 13.5198 55.8487 13.1399 56.3077 12.5477V13.3522H57.763V10.0337ZM52.3785 10.0337C52.3785 8.87174 53.1397 7.91084 54.3935 7.91084C55.5913 7.91084 56.3973 8.82705 56.3973 10.0337C56.3973 11.2405 55.5913 12.1567 54.3935 12.1567C53.1397 12.1567 52.3785 11.1958 52.3785 10.0337Z" fill="black"/>
</g>
<defs>
<clipPath id="clip0_2025_304">
<rect width="112" height="20" fill="white"/>
</clipPath>
</defs>
</svg>
