<svg width="73" height="20" viewBox="0 0 73 20" fill="none" xmlns="http://www.w3.org/2000/svg">
<g clip-path="url(#clip0_2025_310)">
<path d="M0 0.000191281H6.8474C7.4679 0.000191281 9.3367 -0.204937 10.1689 2.71081C10.7894 4.58627 11.6216 7.50202 12.8699 11.8757H13.286C14.527 7.28957 15.5636 4.16869 15.9797 2.71081C16.8119 -0.204937 18.8851 0.000191281 19.7173 0.000191281H26.1486V20.0002H19.5056V8.13206H19.0895L15.5636 20.0002H10.585L7.0591 8.13206H6.4386V20.0002H0M28.8496 0.000191281H35.4926V11.8683H36.1131L40.4712 2.08078C41.3034 0.205319 43.1722 0.000191281 43.1722 0.000191281H49.3991V20.0002H42.7561V8.13206H42.34L37.9819 17.9196C37.1497 19.7951 35.0765 20.0002 35.0765 20.0002H28.8496M58.3197 13.9562V20.0002H52.0928V9.58261H72.4306C71.5984 12.0808 68.693 13.9562 65.3715 13.9562" fill="#0F754E"/>
<path d="M72.8468 8.337C73.6717 4.58608 71.1824 0 65.7877 0H51.6768C52.0929 4.37363 55.8305 8.32967 59.7725 8.32967" fill="url(#paint0_linear_2025_310)"/>
</g>
<defs>
<linearGradient id="paint0_linear_2025_310" x1="70.3532" y1="4.16867" x2="53.7507" y2="4.16867" gradientUnits="userSpaceOnUse">
<stop stop-color="#1F5CD7"/>
<stop offset="1" stop-color="#02AEFF"/>
</linearGradient>
<clipPath id="clip0_2025_310">
<rect width="73" height="20" fill="white"/>
</clipPath>
</defs>
</svg>
