<svg width="64" height="64" viewBox="0 0 64 64" fill="none" xmlns="http://www.w3.org/2000/svg">
<g clip-path="url(#clip0_2016_3773)">
<mask id="mask0_2016_3773" style="mask-type:luminance" maskUnits="userSpaceOnUse" x="0" y="0" width="64" height="64">
<path d="M51.2001 63.9843H12.8396C5.77557 63.9843 0.0512695 58.2574 0.0512695 51.1947V12.8168C0.0512695 5.7496 5.77557 0.0227051 12.8396 0.0227051H51.2001C58.2641 0.0227051 63.9884 5.7496 63.9884 12.8168V51.1947C63.9839 58.2574 58.2596 63.9843 51.2001 63.9843Z" fill="white"/>
</mask>
<g mask="url(#mask0_2016_3773)">
<path d="M63.9839 0.0227051H0.0512695V63.9843H63.9839V0.0227051Z" fill="#005BFF"/>
</g>
<mask id="mask1_2016_3773" style="mask-type:luminance" maskUnits="userSpaceOnUse" x="0" y="0" width="64" height="64">
<path d="M51.2001 0.0228271H12.8396C5.77557 0.0228271 0.0512695 5.74971 0.0512695 12.8169V51.1948C0.0512695 58.2575 5.77557 63.9844 12.8396 63.9844H51.2001C58.2596 63.9844 63.9839 58.2575 63.9884 51.1948V12.8169C63.9884 5.74971 58.2641 0.0228271 51.2001 0.0228271Z" fill="white"/>
</mask>
<g mask="url(#mask1_2016_3773)">
<path d="M71.0572 54.823C66.1994 59.1946 60.5992 65.6469 53.5644 65.3929C51.6706 64.1162 54.6653 61.6272 55.6252 60.55C58.6914 57.1089 61.7165 53.4359 64.697 49.692C75.419 36.2241 71.9091 43.7314 71.0572 54.823Z" fill="#F1117E"/>
<path d="M58.5888 -11.4176C53.8034 -0.471405 47.9361 10.4025 39.657 19.1487C33.9283 25.2007 29.9398 29.7202 22.8714 35.1593C14.6949 41.4511 6.69557 46.3555 -1.04918 53.0272C-5.14182 56.7968 -9.96697 59.9142 -15.1733 62.1289C-15.1414 62.5536 -14.7039 68.6957 -14.6904 68.777C-14.6182 68.7363 -13.1702 67.572 -12.8815 67.3599C-0.662647 58.8583 13.3866 53.1451 25.3476 44.0407C40.0653 31.6548 52.3925 16.3401 62.9194 0.28918C72.5 -13.0931 78.7831 -13.3186 58.5888 -11.4176Z" fill="#F1117E"/>
<path d="M11.7481 3.40739C8.89267 6.43105 6.10495 9.45921 3.31272 12.546C1.79255 14.2339 0.421246 16.0526 -1.08088 17.7675C-3.76485 20.8318 -6.54355 23.8599 -9.71469 26.3646C-12.9309 28.9009 -16.3908 31.4642 -19.6702 33.9192C-19.6792 33.7342 -20.0671 25.1326 -20.0762 24.9385C-18.6868 22.5828 -17.2885 19.9156 -16.2555 17.3568C-15.6465 15.845 -15.1097 14.2564 -14.4962 12.7446C-13.3234 9.83378 -11.7852 7.17116 -9.52072 5.05009C-8.25768 3.86319 -6.80518 3.02379 -5.31208 2.22501C-0.832777 -0.175867 3.64201 -2.61736 8.13033 -4.99566C10.8053 -6.41723 12.8307 -8.89482 15.2169 -10.7677L24.6852 -11.1964C20.3864 -6.29989 16.2274 -1.33568 11.7481 3.40739Z" fill="#F1117E"/>
<path d="M32.5107 72.2501C36.074 68.6307 48.558 60.223 46.5688 59.0706C46.3897 58.9669 46.1684 58.9671 45.9821 59.0572C39.1259 62.3731 32.7251 67.0846 27.9079 73.0587C27.7836 73.2128 27.5967 73.3023 27.3987 73.3003C26.2707 73.2887 22.6241 73.2477 20.2847 73.2218C19.6597 73.2149 19.4092 72.4111 19.9196 72.0501C20.3157 71.7699 20.6435 71.5318 20.8284 71.3945C26.4781 67.037 32.7714 63.7662 38.8688 60.2109C46.1789 55.9485 52.5168 50.202 57.4774 43.3446C59.7589 40.1905 62.0854 37.0755 64.8103 34.3158C64.8396 34.2861 64.8719 34.2595 64.9064 34.236C72.5138 29.0635 74.6183 13.5944 85.1121 8.1281C85.5457 7.90226 86.0626 8.21704 86.0584 8.70605C86.0238 12.6855 80.7669 15.921 80.4222 20.0044C80.4188 20.0445 80.4121 20.0845 80.4014 20.1234C76.3219 34.9638 61.9453 45.0298 55.1227 52.7775C51.0701 57.3796 46.2643 66.5357 40.7408 72.6486C40.6801 72.7157 40.6346 72.7949 40.6064 72.8809C40.3301 73.7228 35.3856 73.4321 32.9491 73.3456C32.3894 73.3258 32.1176 72.6493 32.5107 72.2501Z" fill="#F1117E"/>
<path d="M-17.855 75.0753C-4.17667 65.6327 12.174 60.718 25.5717 50.9839C33.3323 44.304 39.2686 35.5794 47.1392 29.0847C49.3142 27.7736 48.7039 29.763 47.9978 31.0522C40.0926 46.9146 24.3084 56.0163 9.60087 64.7173C-1.00583 71.5029 -3.11847 77.1596 -17.855 75.0753Z" fill="#F1117E"/>
<path d="M76.3674 10.0242C88.2415 4.12598 85.16 -2.10439 83.6224 -14.0085C77.4169 -9.59898 73.514 -4.61286 68.7744 1.2053C54.7555 17.4364 49.7887 41.1899 30.7918 53.3377C21.0371 59.0148 13.1528 67.0891 4.81885 74.5713C6.70264 73.9086 17.2679 75.0146 17.8014 72.1073C20.2927 67.8934 23.0117 64.5491 27.5906 62.5633C36.18 58.0519 43.5914 51.6456 51.1279 45.5988C61.469 35.3649 61.4774 16.065 76.3674 10.0242Z" fill="#F1117E"/>
<path d="M57.1968 -11.3761C49.6498 2.30155 35.8185 16.2801 21.8318 26.7468C16.3854 30.8225 10.062 33.556 3.37215 34.7837C-1.73184 35.7203 -3.95685 37.2094 -11.251 43.3396C-13.7728 45.9696 -15.1306 48.411 -17.3093 52.6126C-17.3139 52.4682 -17.9048 39.5071 -17.9048 39.5071C-12.102 31.5983 -3.22973 28.1681 3.49053 21.4286C9.032 15.6396 12.8997 8.37993 18.011 2.21701C20.5632 -1.0284 28.6531 -8.34874 30.1766 -10.1534C30.1947 -10.1531 38.5488 -10.5322 38.5488 -10.5322C34.73 -5.69296 30.8403 -1.07506 22.7711 8.47868C21.8002 9.62813 13.7813 17.8883 10.8502 22.4328C9.89585 23.9125 9.24943 25.4171 9.96958 25.9784C10.7325 26.5731 11.8067 25.5842 13.5439 24.4983C23.5124 18.2671 30.4811 12.385 38.5536 2.32549C51.6212 -13.9587 41.6049 -12.5109 57.1968 -11.3761Z" fill="#F1117E"/>
</g>
<mask id="mask2_2016_3773" style="mask-type:luminance" maskUnits="userSpaceOnUse" x="0" y="0" width="64" height="64">
<path d="M51.2001 0.0228271H12.8396C5.77557 0.0228271 0.0512695 5.74971 0.0512695 12.8169V51.1948C0.0512695 58.2575 5.77557 63.9844 12.8396 63.9844H51.2001C58.2596 63.9844 63.9839 58.2575 63.9884 51.1948V12.8169C63.9884 5.74971 58.2641 0.0228271 51.2001 0.0228271Z" fill="white"/>
</mask>
<g mask="url(#mask2_2016_3773)">
<path d="M26.849 36.8749L21.2078 38.3872L25.8561 26.9164C25.9582 26.6604 25.8335 26.3702 25.5775 26.2681C25.4788 26.2287 25.3701 26.222 25.2671 26.2487L14.8448 29.0427C13.9249 29.2893 13.3788 30.2354 13.6253 31.1558C13.8718 32.0762 14.8176 32.6224 15.7375 32.3758L20.4242 31.1194L15.75 42.6019C15.6442 42.8535 15.7622 43.1434 16.0137 43.2492C16.1167 43.2926 16.2315 43.2997 16.339 43.2694L27.7428 40.2124C28.6488 39.9183 29.1449 38.9451 28.8508 38.0388C28.5782 37.1984 27.7152 36.6999 26.8514 36.8839L26.849 36.8749ZM60.5097 16.8013C59.5895 17.0479 59.0437 17.994 59.2902 18.9144L60.7872 24.504L49.8686 19.7698C49.6197 19.6577 49.3273 19.7688 49.2153 20.0179C49.1681 20.123 49.1591 20.2413 49.1898 20.3524L52.2672 31.8424C52.5137 32.7628 53.4594 33.3089 54.3793 33.0623C55.2992 32.8157 55.8453 31.8697 55.5988 30.9493L54.1017 25.3597L65.0216 30.0985C65.2749 30.2066 65.5679 30.0886 65.6758 29.8352C65.7194 29.7328 65.7276 29.6188 65.699 29.5113L62.6217 18.0213C62.3752 17.101 61.4296 16.5547 60.5097 16.8013ZM39.5348 33.8121C35.726 34.8332 32.3381 33.5882 31.8568 31.7911C31.3755 29.9939 33.6873 27.2213 37.4961 26.2003C41.3049 25.1792 44.6927 26.424 45.174 28.2211C45.6553 30.0183 43.3526 32.7887 39.5348 33.8121ZM36.6046 22.8716C31.0896 24.35 27.4742 28.7419 28.5297 32.683C29.5852 36.6241 34.9112 38.6192 40.4263 37.1407C45.9413 35.6623 49.5565 31.2704 48.501 27.3293C47.4454 23.3882 42.1196 21.3932 36.6046 22.8716ZM6.7472 42.6063C4.6444 43.1728 2.48075 41.9265 1.91454 39.8226C1.34851 37.7188 2.59425 35.5541 4.69709 34.9879C6.79989 34.4214 8.96352 35.6677 9.52971 37.7715L9.53092 37.776C10.0941 39.8788 8.84837 42.0405 6.7472 42.6063ZM3.81582 31.6613C-0.125831 32.7152 -2.46722 36.7665 -1.41364 40.7099C-0.360169 44.6535 3.68923 46.9958 7.63089 45.9419C11.5725 44.8878 13.9139 40.8367 12.8603 36.8932C12.8595 36.8901 12.8587 36.8871 12.8579 36.8841C11.8026 32.9439 7.75437 30.6055 3.81582 31.6613Z" fill="white"/>
</g>
</g>
<defs>
<clipPath id="clip0_2016_3773">
<rect width="64" height="64" fill="white"/>
</clipPath>
</defs>
</svg>
