<svg width="65" height="65" viewBox="0 0 65 65" fill="none" xmlns="http://www.w3.org/2000/svg">
<g clip-path="url(#clip0_2008_3459)">
<path d="M62.9688 3.04688H2.53906V61.9531H62.9688V3.04688Z" fill="white"/>
<path d="M5.07812 0C2.27348 0 0 2.27348 0 5.07812V59.9219C0 62.7265 2.27348 65 5.07812 65H59.9219C62.7255 65 65 62.7265 65 59.9219V5.07812C65 2.27348 62.7255 0 59.9219 0H5.07812ZM61.4296 8.09098V56.9095C61.4296 59.4059 59.4054 61.4296 56.91 61.4296H8.09098C5.59406 61.4296 3.57094 59.4059 3.57094 56.9095V8.09098C3.57094 5.59457 5.59457 3.57094 8.09098 3.57094H56.9095C59.4049 3.57043 61.4296 5.59406 61.4296 8.09098Z" fill="#2051A8"/>
<path d="M30.8638 32.1775C31.591 31.2056 31.7606 29.9213 30.6419 29.1611C29.8344 30.1229 29.8192 31.3904 30.8638 32.1775Z" fill="#2051A8"/>
<path d="M31.4347 29.6963C31.6063 28.8229 31.748 27.9424 31.7658 27.0511C30.9025 27.7022 30.3693 28.9341 31.4347 29.6963Z" fill="#2051A8"/>
<path d="M33.3169 30.6002C32.8507 30.325 32.2901 30.3936 31.7722 30.3555C31.7544 31.1411 32.0921 31.8373 32.6095 32.4101C32.8954 31.8418 33.4566 31.2893 33.3169 30.6002Z" fill="#2051A8"/>
<path d="M28.9688 32.7833C29.3166 33.3795 29.6985 33.9523 30.1301 34.4921C30.8471 33.5283 30.8771 32.3415 29.9407 31.5138C29.6152 31.9353 29.2922 32.3618 28.9688 32.7833Z" fill="#2051A8"/>
<path d="M29.3925 36.5396C29.9653 35.6103 29.945 34.4571 29.135 33.6674C28.61 34.6033 28.5622 35.7621 29.3925 36.5396Z" fill="#2051A8"/>
<path d="M25.1948 42.0524C25.1775 42.1631 25.1471 42.383 25.1318 42.4942C25.9123 42.6481 26.6619 42.9335 27.4464 43.067C26.9188 42.3525 25.9905 42.2545 25.1948 42.0524Z" fill="#2051A8"/>
<path d="M31.884 34.644C32.5025 33.5791 32.5274 32.2588 31.4376 31.494C30.9024 32.5589 30.9603 33.8213 31.884 34.644Z" fill="#2051A8"/>
<path d="M29.1581 29.3861C28.3227 30.0498 28.5096 31.199 28.9133 32.0491C29.9127 32.0186 30.092 29.7949 29.1581 29.3861Z" fill="#2051A8"/>
<path d="M29.895 38.3139C30.5338 37.6304 30.385 36.666 30.155 35.848C29.3928 36.3248 28.9515 38.0087 29.895 38.3139Z" fill="#2051A8"/>
<path d="M30.3748 40.1746C30.8872 39.5058 30.6927 38.6953 30.4327 37.9712C29.6903 38.5694 29.153 39.776 30.3748 40.1746Z" fill="#2051A8"/>
<path d="M32.6743 27.8184C33.1821 27.2329 33.2451 26.1548 32.4316 25.8069C31.9751 26.4148 31.8314 27.4624 32.6743 27.8184Z" fill="#2051A8"/>
<path d="M32.4397 30.2823C33.1212 29.7395 33.3482 28.9239 33.3513 28.0809C31.6521 27.3543 31.4932 29.3383 32.4397 30.2823Z" fill="#2051A8"/>
<path d="M30.0059 29.8532C30.4782 28.9087 30.8941 27.8844 30.6971 26.8063C30.3015 27.7402 29.1122 28.8889 30.0059 29.8532Z" fill="#2051A8"/>
<path d="M38.2605 37.3298C37.9949 38.1677 38.1894 39.0416 38.4403 39.8566C39.2142 38.8547 39.5763 37.6101 39.5001 36.3507C39.2431 36.9037 39.0334 37.4765 38.8491 38.057C38.684 37.7792 38.7099 37.244 38.2605 37.3298Z" fill="#2051A8"/>
<path d="M29.9102 26.4301C30.8161 25.8146 30.8669 24.7238 30.6013 23.7544C29.736 24.378 29.8218 25.486 29.9102 26.4301Z" fill="#2051A8"/>
<path d="M36.9626 32.0591C35.7591 33.4399 37.0632 35.0227 37.6624 36.3578C38.6466 34.9085 38.5709 33.0184 36.9626 32.0591Z" fill="#2051A8"/>
<path d="M32.4921 34.0686C31.8107 34.9492 31.798 35.9998 32.5023 36.8677C33.3539 36.0475 33.3651 34.8842 32.4921 34.0686Z" fill="#2051A8"/>
<path d="M35.2563 38.5465C35.9428 37.7005 35.8753 36.4863 34.9505 35.85C34.6291 36.7621 34.7535 37.7234 35.2563 38.5465Z" fill="#2051A8"/>
<path d="M35.7107 36.4162C36.7177 35.8078 36.4013 34.5302 35.9707 33.6649C35.2745 34.4144 35.0317 35.5676 35.7107 36.4162Z" fill="#2051A8"/>
<path d="M37.5501 40.6057C37.0529 39.9745 36.4806 39.3158 35.6362 39.1945C35.4554 40.3106 36.8016 40.3736 37.5501 40.6057Z" fill="#2051A8"/>
<path d="M36.1425 32.7808C35.8144 32.3568 35.4894 31.9302 35.1599 31.5087C34.2514 32.3492 34.2661 33.5232 34.9766 34.487C35.4117 33.9523 35.7967 33.3795 36.1425 32.7808Z" fill="#2051A8"/>
<path d="M36.7003 30.1991C36.7409 30.5906 36.7825 30.9862 36.8262 31.3803C36.6515 31.7235 36.4849 32.0694 36.3306 32.4228C37.1994 31.9404 37.6742 31.0644 38.0074 30.1661C37.5712 30.1737 37.1349 30.1864 36.7003 30.1991Z" fill="#2051A8"/>
<path d="M37.258 27.5585C36.6223 27.0689 35.9631 26.6145 35.3096 26.1523C35.372 27.1903 36.15 28.3436 37.258 27.5585Z" fill="#2051A8"/>
<path d="M36.1981 32.0769C36.5962 31.1857 36.8471 29.8177 35.7284 29.3454C35.249 30.1381 35.12 31.8398 36.1981 32.0769Z" fill="#2051A8"/>
<path d="M34.8623 26.8414C35.2457 28.0383 35.7738 29.6913 37.2267 29.8502C38.3175 29.8025 38.2773 28.5203 38.3175 27.7276C37.1576 29.2749 35.7332 27.9246 34.8623 26.8414Z" fill="#2051A8"/>
<path d="M30.9199 33.8868C29.8118 34.4875 30.1018 35.8683 30.7563 36.699C31.5942 36.0018 31.7735 34.6439 30.9199 33.8868Z" fill="#2051A8"/>
<path d="M33.6715 31.4909C32.5781 32.2607 32.6086 33.5811 33.2271 34.6465C34.1458 33.8162 34.2087 32.5588 33.6715 31.4909Z" fill="#2051A8"/>
<path d="M35.2035 26.4383C35.2838 25.4942 35.3721 24.3837 34.5114 23.7524C34.2387 24.7244 34.2793 25.8299 35.2035 26.4383Z" fill="#2051A8"/>
<path d="M31.6819 35.9821C30.6704 36.8149 30.5617 38.1352 31.2457 39.2128C32.1796 38.3799 32.3736 37.0368 31.6819 35.9821Z" fill="#2051A8"/>
<path d="M17.8496 32.0566C19.3136 32.2887 20.8686 31.7636 21.5323 30.358C20.0962 30.128 18.2716 30.4235 17.8496 32.0566Z" fill="#2051A8"/>
<path d="M34.4586 29.1667C33.3547 29.9315 33.4948 31.2035 34.2377 32.1704C35.3199 31.4051 35.2838 30.1158 34.4586 29.1667Z" fill="#2051A8"/>
<path d="M35.1027 29.8507C36.0016 28.8863 34.797 27.7377 34.3954 26.8063C34.2288 27.8844 34.6295 28.9066 35.1027 29.8507Z" fill="#2051A8"/>
<path d="M33.3408 27.0542C33.3774 27.9429 33.512 28.826 33.6709 29.7019C34.7388 28.9397 34.2056 27.7001 33.3408 27.0542Z" fill="#2051A8"/>
<path d="M46.7124 45.2354C47.2258 43.7841 46.4067 42.3454 46.034 40.9672C45.4236 41.5553 44.7792 42.1103 44.0891 42.6029C44.6761 43.1859 45.1484 43.8668 45.5379 44.5971C44.1764 43.3428 41.6485 43.5144 41.3093 45.6244C40.7847 44.5996 40.4496 43.229 39.2633 42.7847C39.1394 42.9157 38.8921 43.1757 38.7677 43.3072C38.5707 43.1783 38.3792 43.0498 38.1868 42.9233C38.8535 42.7492 39.5167 42.5755 40.1759 42.3683C39.3298 41.8407 38.43 42.5425 37.6134 42.7923C37.1691 42.2728 36.6674 41.8082 36.1174 41.4065C35.3369 40.6747 34.4462 40.0765 33.5469 39.5037C33.812 40.2837 34.0029 41.3943 34.9733 41.5761C35.8066 41.7452 36.6593 42.0331 37.0335 42.8715C36.7075 43.061 36.382 43.2575 36.0646 43.4565C36.6745 43.5804 37.2905 43.4845 37.8739 43.2727C39.8976 44.2797 40.9528 46.2586 41.7887 48.2523C41.6399 49.111 42.0984 49.6407 42.9643 49.7499C42.7779 49.4035 42.591 49.0633 42.4016 48.7246C42.4859 48.6393 42.5646 48.5504 42.6316 48.457C42.8165 49.1882 43.2684 49.8062 44.1028 49.7163C44.3765 48.818 43.2039 48.7271 42.6342 48.4514C42.8043 48.2142 42.8921 47.9492 42.75 47.6414C43.4375 47.4677 44.115 47.2651 44.7919 47.0458C44.0774 46.0743 42.9693 46.6339 42.1238 47.0635C40.7456 45.8722 42.7495 43.6104 44.2135 44.4209C45.1702 44.8373 45.5841 46.1855 44.9224 47.0234C44.4227 47.4601 43.7245 47.5637 43.1313 47.8263C45.0219 48.6789 46.1183 46.6923 46.7124 45.2354Z" fill="#2051A8"/>
<path d="M46.0342 24.7894C49.6361 23.0958 53.3446 19.3421 52.102 15.0109C49.7463 17.0229 47.7552 19.6528 46.8061 22.619C48.2168 21.5114 48.9013 19.7087 50.4587 18.7571C49.7123 21.286 46.8121 22.2726 46.0342 24.7894Z" fill="#2051A8"/>
<path d="M43.5148 34.4323C44.2339 35.5682 45.3694 36.4691 45.6451 37.8503C44.5995 37.1714 44.2207 35.783 43.0278 35.3184C43.7824 37.0983 44.8123 38.9939 46.7968 39.5921C46.681 37.5015 45.5242 35.2453 43.5148 34.4323Z" fill="#2051A8"/>
<path d="M47.6986 24.3983C46.2427 24.83 44.8153 25.5089 43.8037 26.6753C45.6029 27.5711 47.3178 26.1523 47.6986 24.3983Z" fill="#2051A8"/>
<path d="M43.5342 40.1359C43.9755 38.4449 43.5256 36.6122 42.3053 35.3554C42.4612 36.307 42.6974 37.2485 42.7339 38.2209C42.0139 37.2134 42.0951 35.9089 41.5446 34.8282C41.2943 36.7564 41.5594 39.1949 43.5342 40.1359Z" fill="#2051A8"/>
<path d="M45.8625 40.563C46.06 40.008 45.3227 39.6997 44.9134 39.9577C44.0938 40.3716 42.9365 41.2475 43.3443 42.2799C44.4594 42.4988 45.3806 41.4491 45.8625 40.563Z" fill="#2051A8"/>
<path d="M47.3069 27.1522C45.9992 27.0588 44.1051 26.7835 43.8481 28.5253C45.1517 28.7224 46.7924 28.6035 47.3069 27.1522Z" fill="#2051A8"/>
<path d="M47.2775 32.0592C46.8479 30.4261 45.0132 30.1204 43.5791 30.3631C44.2535 31.7667 45.8048 32.2887 47.2775 32.0592Z" fill="#2051A8"/>
<path d="M44.3389 29.7496C45.4454 30.5901 47.0359 30.4413 48.0474 29.5252C46.9886 28.6213 45.1113 28.3206 44.3389 29.7496Z" fill="#2051A8"/>
<path d="M45.8759 32.7985C45.0568 31.8571 43.8243 31.433 42.6228 31.852C42.7945 32.0942 42.9758 32.3415 43.1525 32.5868C42.8798 32.8844 42.6101 33.1875 42.3491 33.4953C43.0235 34.0381 43.8172 34.4322 44.7099 34.3865C44.452 33.9421 44.1899 33.508 43.904 33.0839C44.5688 33.0433 45.2274 32.9499 45.8759 32.7985Z" fill="#2051A8"/>
<path d="M45.1006 48.3782C44.4689 48.1334 43.7874 48.0781 43.1191 48.0476C43.4497 48.7565 45.0473 49.6625 45.1006 48.3782Z" fill="#2051A8"/>
<path d="M18.3398 22.722C17.406 19.7158 15.397 17.0401 13.0063 15.018C12.7463 16.6212 12.5878 18.4031 13.5263 19.829C14.8872 21.9166 16.7372 23.7945 19.0594 24.7812C18.3022 22.2523 15.3747 21.2778 14.6445 18.7332C16.2095 19.7386 16.9545 21.5307 18.3398 22.722Z" fill="#2051A8"/>
<path d="M41.5753 48.8774C41.5519 48.7693 41.5092 48.557 41.4889 48.4483C40.1884 48.2366 38.8762 48.0878 37.6138 47.6963C37.9271 47.1991 38.2476 46.704 38.566 46.2094C38.7858 46.2399 39.0042 46.2698 39.2271 46.3028C39.2165 45.8062 39.2073 45.3085 39.1997 44.8134C38.8488 44.9322 38.4994 45.0536 38.1541 45.177C37.1466 47.6765 35.2205 49.6727 33.7087 51.8761C32.916 50.5659 32.2386 49.1903 31.4312 47.8903C30.6842 48.9252 29.9956 50.0002 29.3116 51.0783C29.1369 51.1113 28.7885 51.1743 28.6144 51.2073C28.6118 51.6846 28.6118 52.1615 28.6118 52.6408C29.0587 52.4844 29.503 52.3301 29.953 52.1762C29.6295 50.9493 30.8462 50.0937 31.3885 49.1344C32.1736 50.4349 32.8658 51.7877 33.663 53.0796C34.898 51.4566 36.0614 49.7808 37.2396 48.1147C38.6467 48.5342 40.0955 48.9003 41.5753 48.8774Z" fill="#2051A8"/>
<path d="M35.5898 23.0755C35.7594 23.0958 36.0945 23.1385 36.2601 23.1588C36.0239 23.4264 35.7888 23.6965 35.5537 23.9667C35.6477 24.3806 35.7396 24.7919 35.8391 25.2083C36.1956 24.4156 36.5485 23.6178 36.9375 22.8404C36.8253 22.8581 36.6018 22.8932 36.4901 22.9084C36.7659 22.5423 37.0406 22.1741 37.3036 21.7953C36.61 22.038 36.0366 22.4976 35.5898 23.0755Z" fill="#2051A8"/>
<path d="M20.4617 34.1494C19.437 34.8329 18.5737 35.7495 17.4484 36.2746C18.1898 34.9136 19.7604 34.3885 20.6664 33.1774C19.9996 33.2937 19.3537 33.4958 18.7306 33.7507C18.9048 33.478 19.0789 33.2079 19.2501 32.9352C18.1547 33.6192 17.1269 34.4546 15.8706 34.8308C16.5038 33.7858 17.685 33.3668 18.6544 32.7209C16.3144 33.2612 13.6565 34.4322 13.1162 37.0449C15.4486 37.0551 16.8827 35.1035 18.5986 33.8721C17.3443 35.2782 15.7817 36.6387 15.6654 38.6709C18.0471 38.2916 19.2455 35.9592 20.4617 34.1494Z" fill="#2051A8"/>
<path d="M31.4424 53.0958C31.934 52.4138 32.3534 51.6491 32.3027 50.7787C31.9924 51.0864 31.6943 51.4099 31.3988 51.7329C31.0707 51.4277 30.7477 51.1194 30.3948 50.8493C29.9383 51.6922 31.0641 52.4118 31.4424 53.0958Z" fill="#2051A8"/>
<path d="M36.4776 52.6865C36.4832 52.1919 36.4862 51.6994 36.4883 51.2048C36.115 51.1113 35.7433 51.0179 35.3731 50.9244C34.944 51.9248 35.5366 52.4621 36.4776 52.6865Z" fill="#2051A8"/>
<path d="M32.5808 44.3523C31.7434 45.4446 30.7837 46.4369 29.8574 47.452C31.5784 46.6009 33.5604 46.5963 35.2793 47.4596C34.3511 46.4496 33.3684 45.4801 32.5808 44.3523Z" fill="#2051A8"/>
<path d="M21.8888 42.4008C21.9137 40.9825 20.5939 39.5967 19.1299 39.9699C19.3894 41.2999 20.5233 42.3373 21.8888 42.4008Z" fill="#2051A8"/>
<path d="M23.57 34.7653C23.0069 35.8657 23.047 37.1779 22.3553 38.2235C22.3833 37.2541 22.6133 36.3126 22.7824 35.3635C21.5332 36.6056 21.162 38.4581 21.586 40.137C23.5192 39.1422 23.7996 36.7011 23.57 34.7653Z" fill="#2051A8"/>
<path d="M18.3091 39.5885C20.2982 39.0004 21.3351 37.1048 22.0654 35.3127C20.8913 35.8099 20.4998 37.1728 19.4578 37.8568C19.733 36.5391 20.7852 35.6458 21.4692 34.5505C19.4953 35.3102 18.4452 37.577 18.3091 39.5885Z" fill="#2051A8"/>
<path d="M24.607 33.4125C23.3649 34.061 24.0037 35.8759 24.8294 36.6686C24.7634 37.2745 24.6603 37.8752 24.4861 38.4612C24.3501 37.603 24.2896 36.727 23.9946 35.9039C23.7168 37.3323 23.6076 38.9406 24.4938 40.1923C24.9858 38.9254 25.2839 37.5522 25.0463 36.1943C25.127 35.2777 25.7196 33.9046 24.607 33.4125Z" fill="#2051A8"/>
<path d="M54.8239 18.5951C52.9288 19.5239 51.4262 21.0285 49.9261 22.4773C49.1446 23.2731 47.9355 23.8758 47.8623 25.1251C47.6679 25.4028 47.4688 25.6781 47.2773 25.9579C49.758 25.4429 52.0879 24.1886 53.85 22.3661C54.8062 21.3617 54.8691 19.9027 54.8239 18.5951Z" fill="#2051A8"/>
<path d="M22.5723 33.6649C22.4159 33.2759 22.2346 32.9001 22.03 32.5365C22.1437 32.2638 22.2575 31.9886 22.3732 31.7159C21.2703 31.5696 20.0485 31.7636 19.3721 32.7432C19.9327 33.0585 20.5766 33.0783 21.2022 33.0763C20.927 33.5029 20.6645 33.9371 20.4146 34.3814C20.957 34.2956 21.4978 34.1996 22.035 34.0884C21.9061 34.5073 21.7801 34.9237 21.6664 35.3483C22.913 35.1817 24.0389 34.4068 24.145 33.0662C23.6128 33.2403 23.0872 33.4424 22.5723 33.6649Z" fill="#2051A8"/>
<path d="M20.7751 29.7497C19.9977 28.3283 18.1172 28.6137 17.062 29.5303C18.0797 30.4413 19.6646 30.5876 20.7751 29.7497Z" fill="#2051A8"/>
<path d="M21.2645 28.5177C20.9969 26.8668 19.1972 26.978 17.9175 27.17C18.1699 28.6868 20.0787 28.6746 21.2645 28.5177Z" fill="#2051A8"/>
<path d="M17.4136 24.4009C17.7843 26.1427 19.589 27.6849 21.3359 26.554C20.1994 25.5617 18.8669 24.8071 17.4136 24.4009Z" fill="#2051A8"/>
<path d="M40.6254 26.5541C39.4107 27.783 41.5644 29.2876 40.921 30.6155C39.8251 31.6149 37.8335 30.2519 37.2627 32.009C37.5237 32.1552 37.7822 32.3045 38.0452 32.4533C38.1214 32.822 38.1971 33.1907 38.2753 33.5614C38.6592 33.3191 39.04 33.0739 39.4214 32.824C40.7798 33.541 39.2406 35.3077 40.2573 36.3955C41.3709 36.1476 41.0784 34.6552 41.152 33.7807C41.5705 34.7171 42.5033 35.2864 43.5789 35.3499C43.196 34.156 42.224 33.2196 40.9484 33.0733C40.9834 33.3161 41.0495 33.5416 41.1398 33.7503C40.9804 33.665 40.6747 33.508 40.5198 33.4268C40.6005 33.1236 40.6813 32.8235 40.7636 32.5254C41.2607 32.7905 41.7584 33.0708 42.2961 33.2628C42.5003 32.7047 42.4576 32.109 42.4277 31.5286C42.9304 31.5311 43.4321 31.5286 43.9399 31.521C43.7312 31.0792 43.5195 30.6425 43.3011 30.2057C43.7861 29.865 44.2639 29.5141 44.7352 29.1556C44.3284 28.9159 43.9227 28.6833 43.5134 28.4563C43.8175 27.9389 44.1095 27.4138 44.3898 26.8836C43.7891 26.8785 43.1934 26.8862 42.5983 26.9065C43.5926 25.902 44.0796 24.5314 44.0339 23.1253C43.1162 24.4766 41.8843 25.5369 40.6254 26.5541Z" fill="#2051A8"/>
<path d="M31.8262 47.1011C32.2426 48.0375 32.8057 47.9217 33.3105 47.1138C32.8134 47.1011 32.3208 47.0955 31.8262 47.1011Z" fill="#2051A8"/>
<path d="M40.656 38.4328C40.4417 37.7132 40.2492 36.986 39.9948 36.2822C39.8836 37.6127 40.1441 38.9381 40.6027 40.1847C41.5198 38.9477 41.3766 37.3324 41.1049 35.9084C40.8175 36.7215 40.7469 37.5822 40.656 38.4328Z" fill="#2051A8"/>
<path d="M43.7271 26.132C45.5191 25.3144 47.0116 23.5071 46.6531 21.4296C44.5522 22.0156 44.1617 24.3176 43.7271 26.132Z" fill="#2051A8"/>
<path d="M33.9084 41.54C33.1314 43.2539 34.568 45.2455 36.3444 45.4502C35.7253 44.3518 34.4527 43.7637 34.0622 42.5247C34.8676 43.196 35.5796 44.0243 36.6018 44.3772C35.9051 43.2564 34.7844 42.5064 33.9084 41.54Z" fill="#2051A8"/>
<path d="M33.7351 49.2309C34.085 49.6097 34.4465 49.9809 34.8233 50.3369C34.8685 49.3573 34.248 48.5981 33.6569 47.8989C33.1572 48.6032 32.7459 49.3954 32.8317 50.2917C33.1389 49.9454 33.4396 49.5924 33.7351 49.2309Z" fill="#2051A8"/>
<path d="M32.5908 42.1759C32.2576 41.5091 31.8834 40.8581 31.4142 40.2802C31.3258 41.3329 31.7402 42.3125 31.9362 43.3245C31.2522 45.0485 29.7328 46.2119 28.3774 47.3911C28.4511 47.452 28.5999 47.5754 28.6755 47.6359C30.0613 46.9848 31.0308 45.7402 31.8204 44.4676C32.0454 44.0085 32.7096 43.6673 33.0651 44.1924C34.0797 45.4848 34.9958 47.4464 36.8589 47.5297C35.4863 46.2775 33.8699 45.1141 33.1681 43.322C33.3606 42.3069 33.7872 41.3329 33.6927 40.2776C33.191 40.8235 32.8584 41.4893 32.5908 42.1759Z" fill="#2051A8"/>
<path d="M39.5399 33.0337C38.3912 34.1417 38.1591 35.7901 37.8428 37.277C39.646 36.724 39.904 34.6165 39.5399 33.0337Z" fill="#2051A8"/>
<path d="M23.042 17.0325C23.1862 18.2041 23.4259 19.3624 23.6961 20.5105C24.2181 19.466 24.2968 17.3555 23.042 17.0325Z" fill="#2051A8"/>
<path d="M27.6337 17.424C28.2746 17.0787 28.0146 16.4297 27.6286 15.9905C27.2244 16.4216 27.005 17.0782 27.6337 17.424Z" fill="#2051A8"/>
<path d="M26.2607 17.6566C26.4954 18.2442 26.604 19.1658 27.4064 19.2192C27.4216 18.4539 27.0128 17.8511 26.2607 17.6566Z" fill="#2051A8"/>
<path d="M27.8731 19.1582C28.6282 19.2567 28.7592 18.1913 29.0065 17.6815C28.2869 17.8582 27.8248 18.4056 27.8731 19.1582Z" fill="#2051A8"/>
<path d="M25.1944 19.3019C25.5758 18.3782 25.9394 17.4235 25.9394 16.4094C25.2051 17.1214 24.1321 18.4036 25.1944 19.3019Z" fill="#2051A8"/>
<path d="M24.3013 20.4079C24.2582 20.8721 24.3821 21.3266 24.476 21.7785C25.2413 21.7029 26.0106 21.6724 26.7779 21.6297C26.3869 22.1523 26.1188 22.7505 25.9949 23.3918C26.8409 22.8718 27.82 21.8166 28.7564 22.7708C28.605 22.7911 28.3044 22.8312 28.1531 22.8541C28.5695 23.6366 28.9305 24.4466 29.3495 25.2291C29.5668 24.4669 29.4785 23.697 28.9178 23.1085C29.0641 23.1009 29.3571 23.0836 29.5059 23.0755C28.8549 22.0126 27.529 21.8841 26.6307 21.127C25.9497 20.6877 25.1473 19.7463 24.3013 20.4079Z" fill="#2051A8"/>
<path d="M23.6836 17.1843C24.4052 17.0452 25.0694 16.6968 25.5011 16.0864C24.7307 16.1316 24.0243 16.4602 23.6836 17.1843Z" fill="#2051A8"/>
<path d="M27.4213 17.7018C26.9013 19.0673 28.8503 17.6211 27.4213 17.7018V17.7018Z" fill="#2051A8"/>
<path d="M26.1313 19.9382C25.7352 20.6826 26.9742 19.9859 26.1313 19.9382V19.9382Z" fill="#2051A8"/>
<path d="M33.1592 14.1476C32.8921 13.8851 32.6209 13.6251 32.3487 13.3676C31.6393 14.1171 32.4417 14.9601 33.1592 14.1476Z" fill="#2051A8"/>
<path d="M33.5576 16.3815C33.4799 15.9925 33.3986 15.604 33.3199 15.2176C33.1026 15.9194 32.9538 16.639 32.8477 17.3656C32.9787 17.2321 33.1153 17.1006 33.2514 16.9721C34.0847 18.6458 34.5722 16.2124 34.7332 15.3816C34.397 15.3486 34.0649 15.3186 33.7333 15.2882C33.6713 15.6518 33.6124 16.0154 33.5576 16.3815Z" fill="#2051A8"/>
<path d="M33.0879 18.3477C33.4814 19.2567 34.395 19.6325 35.3314 19.7081C34.9018 18.8322 34.002 18.4589 33.0879 18.3477Z" fill="#2051A8"/>
<path d="M28.1762 19.4157C27.9614 19.1785 27.5095 19.1861 27.3048 19.4258C27.2668 19.8468 28.2037 19.8219 28.1762 19.4157Z" fill="#2051A8"/>
<path d="M32.4167 14.6478C31.7961 15.2689 32.2684 16.0814 32.4853 16.7629C32.8788 16.1088 33.4948 14.9931 32.4167 14.6478Z" fill="#2051A8"/>
<path d="M26.4443 19.8042C26.6693 21.2281 28.1734 22.0609 29.4958 21.4754C30.7399 20.8543 31.1893 22.6418 32.0526 23.1943C31.785 23.9667 32.0557 24.7137 32.4919 25.3627C32.8077 24.9108 33.1551 24.4618 33.3049 23.9215C32.7168 23.1187 31.9866 22.4296 31.2752 21.7379C31.4265 21.6191 31.5778 21.5008 31.7317 21.3845C31.4011 21.2129 31.073 21.0438 30.745 20.8772C30.8389 20.5065 30.9293 20.1327 31.0223 19.7615C29.5014 19.9281 27.9693 19.9428 26.4443 19.8042Z" fill="#2051A8"/>
<path d="M29.7944 19.7107C30.7207 19.6275 31.619 19.2486 32.0207 18.3528C31.1066 18.4615 30.1981 18.8195 29.7944 19.7107Z" fill="#2051A8"/>
<path d="M31.6369 16.3337C31.445 15.7228 31.1093 15.1551 30.375 15.2333C30.5517 16.1646 30.6325 17.3311 31.6217 17.78C31.6547 17.3788 31.6852 16.9771 31.7151 16.5785C31.8817 16.8786 32.0508 17.1792 32.23 17.4768C32.1975 16.6943 32.0432 15.9244 31.738 15.2023C31.6973 15.5791 31.6648 15.9549 31.6369 16.3337Z" fill="#2051A8"/>
<path d="M49.4473 38.6826C49.0664 36.1582 46.9854 33.6065 44.4316 33.1774C45.3513 34.3794 46.9133 34.9141 47.6598 36.2725C46.536 35.7449 45.6682 34.8415 44.6536 34.1498C45.8627 35.9668 47.0753 38.2865 49.4473 38.6826Z" fill="#2051A8"/>
<path d="M46.4613 32.7184C47.4307 33.3694 48.6068 33.801 49.2528 34.8385C48.2351 34.5003 47.3474 33.8945 46.4009 33.4075C47.8466 35.1061 49.6087 36.9464 51.9914 37.05C51.4597 34.4323 48.7957 33.2683 46.4613 32.7184Z" fill="#2051A8"/>
<path d="M21.0179 49.1125C21.0255 49.2466 21.0402 49.5091 21.0458 49.6427C21.9771 49.7681 23.2888 49.6356 23.3178 48.6814C24.8519 49.0871 26.3971 48.5118 27.8688 48.1055C28.4294 48.8804 28.8529 49.8346 29.7391 50.2988C29.57 48.5118 27.7652 47.4718 27.2122 45.8107C27.0812 45.1643 26.4469 44.9672 25.9198 44.7382C25.902 45.2552 25.8919 45.7757 25.8853 46.2957C26.1021 46.2652 26.3215 46.2373 26.5439 46.2099C26.8618 46.7045 27.1797 47.197 27.4981 47.6942C26.1285 48.1192 24.6813 48.1985 23.3193 48.6469C23.3188 48.4767 23.2838 48.2843 23.1939 48.0603C22.7648 48.0278 22.3382 47.9999 21.9096 47.977C22.197 48.2096 22.49 48.4366 22.7856 48.6611C22.5657 48.9084 22.3458 49.1562 22.1295 49.4035C22.197 49.1511 22.2656 48.9013 22.3387 48.6514C21.6217 48.169 20.7838 48.0431 19.9434 48.1969C20.0688 48.7565 20.442 49.0947 21.0179 49.1125Z" fill="#2051A8"/>
<path d="M54.1704 34.7247C52.9288 32.2861 50.0058 31.5843 47.4916 31.5036C48.5499 32.0155 49.6849 32.3715 50.6822 33.0083C49.2938 32.9829 48.0472 32.2734 46.6685 32.1907C49.0085 33.3845 51.4505 34.8333 54.1704 34.7247Z" fill="#2051A8"/>
<path d="M46.5674 26.9603C48.4377 27.109 50.0581 25.8517 51.9314 25.9304C50.4171 27.109 48.0263 26.584 46.8731 28.2196C50.2632 27.2959 54.5278 27.2756 56.7444 24.1231C53.1959 24.1358 49.6341 25.2164 46.5674 26.9603Z" fill="#2051A8"/>
<path d="M22.6456 19.6051C23.0823 19.7539 23.4708 18.9942 22.931 18.8881C22.5075 18.7591 22.121 19.4914 22.6456 19.6051Z" fill="#2051A8"/>
<path d="M47.9204 30.0199C49.0127 30.2443 50.1288 30.3403 51.2074 30.6409C49.6073 31.0395 48.0316 30.2468 46.4238 30.4693C46.9712 30.9111 47.6202 31.2213 48.3271 31.2945C50.7707 31.6428 53.2895 32.0364 55.7275 31.4432C53.4636 29.901 50.5595 29.7852 47.9204 30.0199Z" fill="#2051A8"/>
<path d="M47.1606 28.7295C48.7029 28.6716 50.2299 28.2125 51.7782 28.4847C50.5224 29.0098 49.1112 28.8534 47.8528 29.348C50.8255 29.9182 54.138 29.5272 56.5994 27.6468C53.4565 27.1141 50.0806 27.43 47.1606 28.7295Z" fill="#2051A8"/>
<path d="M22.1561 47.7268C22.6106 47.8451 23.0671 47.9716 23.5241 48.1005C24.0924 46.0835 25.3111 44.2559 27.2403 43.322C26.9118 43.2819 26.5837 43.2438 26.2577 43.2062C26.1495 43.0849 25.9296 42.8452 25.8189 42.7264C24.7261 43.3068 24.3046 44.5514 23.7999 45.5991C23.3835 43.5394 20.9373 43.3373 19.5668 44.5997C19.9659 43.8953 20.4123 43.2189 20.9221 42.5903C20.2833 42.0753 19.6729 41.5274 19.0798 40.9622C18.7091 42.2952 17.9484 43.6607 18.3429 45.074C18.8975 46.6563 20.1827 48.8125 22.1561 47.7268Z" fill="#2051A8"/>
<path d="M11.3749 22.495C13.1569 24.2318 15.4466 25.5444 17.9328 25.905C16.3022 24.4181 13.9267 23.8504 12.6927 21.8994C14.4695 22.5834 15.7193 24.1002 17.3874 24.9711C16.8197 23.6234 15.4999 22.8835 14.5356 21.8613C13.2782 20.5765 11.8975 19.3877 10.2567 18.6204C10.2496 19.9732 10.3299 21.4957 11.3749 22.495Z" fill="#2051A8"/>
<path d="M18.5009 21.3566C18.0591 23.4543 19.5684 25.315 21.3884 26.1351C20.9821 24.2795 20.5073 22.0985 18.5009 21.3566Z" fill="#2051A8"/>
<path d="M34.6558 23.6762C35.2519 23.1232 35.7663 22.4823 36.1447 21.7602C35.1372 21.8714 34.8172 22.8281 34.6558 23.6762Z" fill="#2051A8"/>
<path d="M18.2335 28.2146C17.0803 26.5789 14.687 27.104 13.1701 25.933C15.045 25.8421 16.6689 27.1167 18.5418 26.9526C15.47 25.2312 11.9133 24.1307 8.36621 24.1231C10.5848 27.268 14.8434 27.2934 18.2335 28.2146Z" fill="#2051A8"/>
<path d="M15.0054 31.5341C16.2698 31.3549 17.6811 31.3726 18.6875 30.4662C17.0778 30.2488 15.5 31.0415 13.8989 30.6404C14.9744 30.3423 16.0901 30.2417 17.1834 30.0193C14.5504 29.7822 11.6604 29.9081 9.39355 31.4275C11.2318 31.9079 13.1422 31.7687 15.0054 31.5341Z" fill="#2051A8"/>
<path d="M17.3499 29.2469C15.9341 28.9438 14.4803 28.8656 13.062 28.5756C13.0691 28.5152 13.0843 28.3887 13.0924 28.3258C14.7281 28.2775 16.3307 28.6264 17.9563 28.7396C15.0312 27.4193 11.6436 27.1116 8.49316 27.6519C10.9865 29.4846 14.3812 30.0396 17.3499 29.2469Z" fill="#2051A8"/>
<path d="M18.4402 32.1932C17.06 32.2765 15.8077 32.9859 14.4168 33.0083C15.4238 32.375 16.5674 32.0261 17.6297 31.5036C15.1034 31.564 12.2281 32.3141 10.918 34.6891C13.65 34.876 16.0905 33.3693 18.4402 32.1932Z" fill="#2051A8"/>
<path d="M21.0658 23.3106C21.0805 24.6279 21.5833 25.8624 22.3678 26.9049C21.8153 26.8871 21.2618 26.8744 20.7093 26.8719C20.9922 27.4097 21.2923 27.9398 21.6026 28.4649C21.2014 28.6817 20.8048 28.9016 20.4087 29.1286C21.4182 29.6867 22.0647 30.4718 21.2187 31.529C21.7188 31.529 22.2211 31.529 22.7233 31.529C22.6375 32.0892 22.5567 32.6473 22.4836 33.2099C23.1118 33.119 23.7074 32.8869 24.2681 32.5889C24.3996 32.8011 24.5362 33.0154 24.6743 33.2302C25.0531 33.152 25.4264 33.0459 25.8001 32.9397C26.1505 33.1464 26.5019 33.3511 26.8549 33.5583C26.9204 33.1871 26.9889 32.8209 27.057 32.4522C27.3195 32.3035 27.5821 32.1547 27.8471 32.0054C27.2642 30.2636 25.2822 31.6067 24.1817 30.6145C23.7455 29.6171 24.6967 28.6457 24.8383 27.6534C25.0729 26.8887 24.2935 26.3986 23.8009 25.9771C22.767 25.2215 21.9215 24.2546 21.0658 23.3106Z" fill="#2051A8"/>
<path d="M28.7945 32.4203C28.6183 32.11 28.436 31.8043 28.2492 31.5042C28.3045 31.0675 28.3604 30.6333 28.4183 30.1966C27.979 30.1839 27.5397 30.1737 27.103 30.1686C27.4443 31.0624 27.8759 31.9861 28.7945 32.4203Z" fill="#2051A8"/>
<path d="M25.6037 36.3452C25.5407 37.6045 25.9013 38.8492 26.6615 39.8587C26.9743 38.9599 27.1784 37.9427 26.5828 37.112C26.5198 37.3643 26.3913 37.8716 26.3258 38.124C26.1034 37.5243 25.8739 36.9256 25.6037 36.3452Z" fill="#2051A8"/>
<path d="M28.1159 41.6284C27.8001 41.6817 27.4898 41.7371 27.177 41.795C27.4766 41.4644 27.7671 41.1262 28.055 40.7855C27.0957 40.8637 26.1415 41.1262 25.4321 41.8102C25.8237 41.891 26.2172 41.9717 26.6113 42.055C27.2374 42.6882 27.7346 42.2667 28.1159 41.6284Z" fill="#2051A8"/>
<path d="M26.6519 33.9345C26.8337 34.7678 27.0982 35.5803 27.439 36.3629C27.931 35.2924 28.7014 34.2402 28.6983 33.026C28.61 32.4177 28.0118 32.3948 27.5268 32.3948C27.2668 32.925 26.9845 33.4475 26.6519 33.9345Z" fill="#2051A8"/>
<path d="M33.6031 36.012C32.5712 36.9109 33.0506 38.2992 33.755 39.2305C34.5649 38.2312 34.4314 36.956 33.6031 36.012Z" fill="#2051A8"/>
<path d="M32.4649 37.7157C31.6818 38.8237 31.7001 40.4442 32.6309 41.4618C33.2372 40.3411 33.6257 38.6145 32.4649 37.7157Z" fill="#2051A8"/>
<path d="M29.0552 43.421C28.7322 43.2316 28.4087 43.0447 28.0857 42.8609C28.4311 42.0454 29.2618 41.7803 30.0621 41.6259C31.0874 41.4543 31.3119 40.2858 31.5719 39.4601C30.8625 39.9374 30.1683 40.432 29.4538 40.8992C29.4944 40.755 29.5752 40.4696 29.6153 40.3259C29.5218 39.9166 29.4284 39.5078 29.337 39.1016C28.6707 39.49 28.0624 39.9699 27.5449 40.5402C27.9969 40.4696 28.4483 40.3889 28.9033 40.3086C28.6052 40.6692 28.3102 41.0307 28.0197 41.3994C28.4615 41.3207 28.9033 41.2405 29.3477 41.1643C28.6763 41.6965 27.6688 42.1312 27.5784 43.0874C27.7323 43.8273 28.5555 43.5673 29.0552 43.421Z" fill="#2051A8"/>
<path d="M28.7645 45.44C30.5439 45.2557 31.9901 43.2437 31.1949 41.54C30.324 42.5069 29.2109 43.2615 28.5142 44.3772C29.5415 44.0263 30.2509 43.1803 31.0583 42.5069C30.6546 43.7439 29.4003 44.3523 28.7645 45.44Z" fill="#2051A8"/>
<path d="M27.3337 37.2612C26.9219 35.7972 26.7152 34.1539 25.5741 33.0408C25.2004 34.6338 25.4731 36.7894 27.3337 37.2612Z" fill="#2051A8"/>
<path d="M34.2366 27.1771C34.4341 26.0563 34.2056 24.9153 33.5292 23.9966C32.7929 25.1275 32.9869 26.5261 34.2366 27.1771Z" fill="#2051A8"/>
<path d="M30.8717 27.1801C32.1362 26.521 32.3637 25.0544 31.4699 23.9794C30.9575 24.9666 30.6696 26.067 30.8717 27.1801Z" fill="#2051A8"/>
<path d="M29.7912 26.1574C29.1224 26.6368 28.4587 27.1192 27.7798 27.5833C28.9412 28.2399 29.7283 27.2863 29.7912 26.1574Z" fill="#2051A8"/>
<path d="M33.9111 24.022C34.4387 23.275 34.8317 22.4371 35.0516 21.5459C34.1883 22.0811 33.7755 23.0201 33.9111 24.022Z" fill="#2051A8"/>
<path d="M26.8027 27.7199C26.8104 28.5202 26.8104 29.7796 27.8834 29.8502C29.3347 29.6836 29.8618 28.0454 30.2457 26.8516C29.3697 27.9195 27.9463 29.285 26.8027 27.7199Z" fill="#2051A8"/>
<path d="M30.0571 21.5485C30.2892 22.4371 30.6853 23.2745 31.2058 24.0322C31.3343 23.0277 30.9229 22.0837 30.0571 21.5485Z" fill="#2051A8"/>
<path d="M28.938 21.778C29.2965 22.4702 29.8241 23.0582 30.4579 23.5122C30.306 22.6718 29.88 21.8765 28.938 21.778Z" fill="#2051A8"/>
<path d="M41.3994 20.7152C41.6218 19.4863 41.8559 18.2594 42.0687 17.03C40.723 17.3636 40.984 19.5944 41.3994 20.7152Z" fill="#2051A8"/>
<path d="M37.7374 19.1806C38.4463 19.0216 38.6789 18.2924 38.88 17.6886C38.1234 17.8023 37.712 18.4463 37.7374 19.1806Z" fill="#2051A8"/>
<path d="M39.1041 23.4065C39.0172 22.753 38.7471 22.1598 38.3312 21.6546C39.1742 21.6749 40.0222 21.685 40.8682 21.6926C40.7997 21.097 40.886 20.0971 40.0278 20.1098C38.9827 20.5943 38.1245 21.3844 37.2739 22.1416C37.8818 22.5635 38.4851 22.9952 39.1041 23.4065Z" fill="#2051A8"/>
<path d="M37.2691 17.7044C36.7486 19.0694 38.6971 17.6211 37.2691 17.7044V17.7044Z" fill="#2051A8"/>
<path d="M38.742 19.9128C38.5364 20.9351 39.7343 19.6503 38.742 19.9128V19.9128Z" fill="#2051A8"/>
<path d="M38.0372 19.436C37.7346 19.2217 37.2247 19.2141 36.9175 19.4131C36.983 19.8194 37.9717 19.8499 38.0372 19.436Z" fill="#2051A8"/>
<path d="M34.3421 20.8746C34.0293 21.0514 33.717 21.2281 33.4077 21.4073C33.5418 21.5084 33.6809 21.614 33.8201 21.7176C33.3133 22.1035 32.9314 22.6164 32.7725 23.2395C34.0141 22.8155 34.56 20.3567 36.0433 21.7227C37.2849 21.6871 38.4239 21.1397 38.6605 19.8143C37.1478 19.9403 35.6289 19.9103 34.1202 19.7717C34.1913 20.1373 34.2644 20.5085 34.3421 20.8746Z" fill="#2051A8"/>
<path d="M37.3097 16.349C36.7963 16.7151 37.0649 17.1137 37.4752 17.4195C38.241 17.2173 37.8886 15.8894 37.3097 16.349Z" fill="#2051A8"/>
<path d="M36.1074 17.6587C36.2872 18.2696 36.501 19.0044 37.216 19.1755C37.2459 18.4463 36.8265 17.8329 36.1074 17.6587Z" fill="#2051A8"/>
<path d="M39.9186 19.403C40.9352 18.3833 39.8729 17.1361 39.2005 16.2652C39.1183 17.3656 39.554 18.3909 39.9186 19.403Z" fill="#2051A8"/>
<path d="M37.1366 41.4898C36.6872 40.7219 35.9504 40.2101 35.1084 39.9597C35.602 40.6767 36.251 41.3105 37.1366 41.4898Z" fill="#2051A8"/>
<path d="M34.0478 34.0381C33.4948 34.7222 33.3684 35.9866 34.219 36.4888C35.4291 36.2522 34.9533 33.6674 34.0478 34.0381Z" fill="#2051A8"/>
<path d="M38.4979 42.0677C38.894 41.9717 39.288 41.8808 39.6872 41.7879C38.9473 41.1714 38.0261 40.8819 37.0846 40.7728C37.3543 41.1186 37.6341 41.4593 37.9205 41.7925C37.6107 41.7315 37.2994 41.6741 36.9917 41.6208C37.3614 42.2596 37.8641 42.671 38.4979 42.0677Z" fill="#2051A8"/>
<path d="M34.687 37.9788C34.3915 38.6877 34.2925 39.4906 34.7398 40.1644C35.885 39.6749 35.4355 38.6197 34.687 37.9788Z" fill="#2051A8"/>
<path d="M42.0266 18.9916C41.8174 19.9986 43.0362 18.7844 42.0266 18.9916V18.9916Z" fill="#2051A8"/>
<path d="M39.6255 16.0859C40.0515 16.6948 40.7031 17.0503 41.4221 17.1914C41.0926 16.4673 40.3857 16.1443 39.6255 16.0859Z" fill="#2051A8"/>
<path d="M32.2353 18.3432C32.2861 18.462 32.3892 18.6966 32.4395 18.8154C32.8919 18.4722 33.351 18.139 33.8045 17.7957C32.9564 17.6571 32.0967 17.6673 31.2583 17.8516C31.5782 18.0172 31.9073 18.1812 32.2353 18.3432Z" fill="#2051A8"/>
</g>
<defs>
<clipPath id="clip0_2008_3459">
<rect width="65" height="65" fill="white"/>
</clipPath>
</defs>
</svg>
