<svg width="64" height="64" viewBox="0 0 64 64" fill="none" xmlns="http://www.w3.org/2000/svg">
<g clip-path="url(#clip0_2008_3600)">
<path d="M62 3H2.5V61H62V3Z" fill="white"/>
<path d="M5 0C2.2385 0 0 2.2385 0 5V59C0 61.7615 2.2385 64 5 64H59C61.7605 64 64 61.7615 64 59V5C64 2.2385 61.7605 0 59 0H5ZM60.5 7.9505V56.0485C60.5 58.5065 58.508 60.499 56.05 60.499H7.9505C5.4925 60.499 3.5 58.5065 3.5 56.0485V7.9505C3.5 5.4925 5.4925 3.5 7.9505 3.5H56.049C58.508 3.5 60.5 5.4925 60.5 7.9505Z" fill="#57A52C"/>
<path d="M30.146 11.1805C26.633 11.8435 23.532 14.277 21.9995 17.504C20.147 21.2595 20.593 26.0205 23.109 29.369C25.5625 32.7145 29.908 34.5835 34.0225 33.9385C37.744 33.451 41.1025 30.984 42.7345 27.617C44.5175 24.0845 44.2795 19.6315 42.136 16.3065C39.6835 12.3285 34.711 10.2605 30.146 11.1805ZM43.2615 19.1505C42.07 19.8735 40.6885 20.151 39.397 20.633C35.407 22.0455 31.5365 24.099 28.648 27.25C27.4205 28.502 26.511 30.01 25.3785 31.34C25.65 29.6835 26.1875 28.0715 26.288 26.39C25.3805 27.3255 24.686 28.43 23.892 29.4535C24.622 26.512 25.078 23.5 26.0935 20.6385C25.3945 18.889 24.064 17.4245 23.31 15.675C29.307 17.7275 35.7265 16.3705 41.8755 17.1145C40.279 17.925 38.4395 18.135 36.904 19.0765C39.024 19.2205 41.149 18.871 43.2615 19.1505Z" fill="#57A52C"/>
<path d="M27.2634 51.2775C29.4289 50.528 31.0059 48.6115 31.7629 46.5015C32.2814 45.0705 32.8064 43.5285 32.4964 41.991C32.3319 41.1055 31.5989 40.452 30.7819 40.15C28.9214 39.4435 26.8969 39.608 24.9474 39.5815C23.7664 42.3375 22.5949 45.099 21.4429 47.8675C22.2659 47.9 23.0989 48.066 23.9169 47.912C24.5959 47.7735 25.0574 47.1875 25.3319 46.587C26.0159 45.1045 26.6574 43.604 27.2844 42.096C27.8784 42.257 28.6439 42.2945 29.0099 42.869C29.3349 43.7 29.0514 44.6195 28.7644 45.421C28.2829 46.5925 27.6479 47.7785 26.6094 48.546C25.1324 49.359 23.3994 49.026 21.7954 49.0465C20.4784 49.199 20.2724 50.781 19.7974 51.764C22.2869 51.89 24.8744 52.177 27.2634 51.2775Z" fill="#1F1A17"/>
<path d="M17.3043 43.3915C18.0293 42.538 19.2333 42.5355 20.2488 42.346C20.9818 42.205 21.9148 42.4135 22.4433 41.7565C22.8688 41.1155 23.0373 40.3435 23.3158 39.631C20.8348 39.4805 18.2173 39.6415 15.9753 40.812C13.4973 42.228 12.4133 45.1045 11.9123 47.7705C11.7083 49 11.7763 50.589 12.9678 51.309C14.1753 51.956 15.6233 51.9315 16.9548 51.851C18.1463 51.7265 18.8903 50.6355 19.1808 49.565C18.0843 49.435 16.9433 49.46 15.8888 49.1005C15.2013 48.835 15.2043 47.978 15.3318 47.372C15.6493 45.915 16.3183 44.5155 17.3043 43.3915Z" fill="#1F1A17"/>
<path d="M54.1716 39.591C52.7571 39.6935 51.1916 39.264 49.9096 40.039C48.3216 41.2105 47.7081 43.431 45.9211 44.348C46.4711 42.7315 47.1976 41.1815 47.8111 39.588C46.6936 39.5825 45.5781 39.588 44.4601 39.584C42.7691 43.6505 41.0241 47.6955 39.3296 51.761C40.4821 51.761 41.6336 51.761 42.7841 51.7465C43.4781 50.0595 44.1776 48.375 44.8836 46.694C45.2801 46.7635 45.7566 46.8045 45.9816 47.192C46.7446 48.4525 46.4471 50.0475 47.0896 51.343C47.8571 52.2555 49.2206 51.813 50.2536 51.8095C49.9516 50.0705 49.8101 48.28 49.1941 46.617C49.0431 46.09 48.5451 45.823 48.2126 45.432C50.7601 44.138 52.3646 41.703 54.1716 39.591Z" fill="#1F1A17"/>
<path d="M39.9053 42.52C40.5643 42.5105 41.3703 42.4755 41.7783 41.866C42.2313 41.174 42.4203 40.3535 42.7188 39.5895C40.8123 39.58 38.9053 39.5895 36.9988 39.5825C36.3878 39.5785 35.6688 39.685 35.3143 40.2475C34.8798 40.9445 34.6798 41.755 34.3823 42.5125C36.2203 42.5255 38.0633 42.5175 39.9053 42.52Z" fill="#1F1A17"/>
<path d="M39.8865 46.6215C40.3045 45.9535 40.501 45.178 40.779 44.447C38.9685 44.413 37.156 44.382 35.3455 44.353C34.6715 44.3655 33.8465 44.375 33.4145 44.982C32.9445 45.687 32.746 46.528 32.437 47.3065C34.331 47.3075 36.226 47.3135 38.118 47.3065C38.756 47.3005 39.5105 47.2065 39.8865 46.6215Z" fill="#1F1A17"/>
<path d="M36.1728 51.789C36.8293 51.7865 37.6143 51.697 37.9983 51.0895C38.4098 50.419 38.5988 49.643 38.8973 48.92C37.0203 48.91 35.1443 48.847 33.2673 48.8385C32.6188 48.846 31.8378 48.929 31.4628 49.5385C31.0378 50.23 30.8313 51.0275 30.5518 51.784C32.4258 51.7975 34.2998 51.7905 36.1728 51.789Z" fill="#1F1A17"/>
</g>
<defs>
<clipPath id="clip0_2008_3600">
<rect width="64" height="64" fill="white"/>
</clipPath>
</defs>
</svg>
