<svg width="62" height="20" viewBox="0 0 62 20" fill="none" xmlns="http://www.w3.org/2000/svg">
<g clip-path="url(#clip0_2025_302)">
<path d="M23.5414 0.352941L15.4256 19.6966H10.1308L6.1318 4.26006C5.89 3.3065 5.6792 2.95975 4.9414 2.56347C3.7386 1.90712 1.7484 1.29412 0 0.916409L0.1178 0.352941H8.6428C9.7278 0.352941 10.7074 1.0774 10.9554 2.32198L13.0634 13.5108L18.2776 0.352941H23.5414ZM44.2928 13.3808C44.3114 8.27864 37.2248 7.99381 37.2744 5.71517C37.2868 5.02167 37.9502 4.28483 39.401 4.09288C40.1202 4 42.098 3.9257 44.3424 4.95975L45.2228 0.860681C44.0076 0.421053 42.4576 0 40.5294 0C35.5756 0 32.0912 2.63158 32.0602 6.39629C32.0292 9.18266 34.5464 10.7368 36.4436 11.6594C38.3966 12.6068 39.0538 13.2136 39.0414 14.0619C39.029 15.3622 37.4852 15.9319 36.0406 15.9567C33.5234 15.9938 32.0602 15.2755 30.8946 14.7368L29.9894 18.9721C31.1612 19.5108 33.3188 19.9752 35.5632 20C40.8332 20 44.2742 17.3994 44.2928 13.3808ZM57.3686 19.6966H62L57.9576 0.352941H53.6796C52.7186 0.352941 51.9064 0.910217 51.5468 1.7709L44.0262 19.6966H49.29L50.3316 16.805H56.761L57.3686 19.6966ZM51.7762 12.8421L54.4112 5.57895L55.9302 12.8421H51.7762ZM30.6962 0.352941L26.5546 19.6966H21.545L25.6928 0.352941H30.6962Z" fill="#1434CB"/>
</g>
<defs>
<clipPath id="clip0_2025_302">
<rect width="62" height="20" fill="white"/>
</clipPath>
</defs>
</svg>
