<svg width="64" height="64" viewBox="0 0 64 64" fill="none" xmlns="http://www.w3.org/2000/svg">
<g clip-path="url(#clip0_2016_3766)">
<path d="M0 30.048C0 19.5264 0 14.272 2.048 10.2528C3.8464 6.72 6.72 3.8464 10.2528 2.048C14.272 0 19.5264 0 30.048 0H33.9584C44.4736 0 49.728 0 53.7472 2.048C57.28 3.8464 60.1536 6.72 61.952 10.2528C64 14.272 64 19.5264 64 30.048V33.9584C64 44.4736 64 49.7344 61.952 53.7536C60.1536 57.28 57.28 60.1536 53.7472 61.952C49.728 64 44.4736 64 33.952 64H30.0416C19.5264 64 14.2656 64 10.2464 61.952C6.72 60.1536 3.8464 57.28 2.048 53.7472C0 49.728 0 44.4736 0 33.952V30.048Z" fill="url(#paint0_linear_2016_3766)"/>
<path d="M48.7041 22.5856C46.4129 22.5856 44.3393 23.2768 42.5729 24.4672V13.632H37.6833V33.6C37.6833 39.6736 42.6241 44.5632 48.6721 44.5632C54.7201 44.5632 59.7185 39.7056 59.7185 33.5424C59.7249 27.3856 54.8353 22.5856 48.7041 22.5856ZM26.5153 35.0144L22.0417 23.36H18.6177L14.1185 35.0144L9.61294 23.36H4.28174L12.1537 43.8528H15.5777L20.3009 31.648L25.0497 43.8528H28.4737L36.3201 23.36H31.0145L26.5153 35.0144ZM48.6785 39.68C45.3633 39.68 42.5729 37.0304 42.5729 33.5744C42.5729 30.1184 45.1969 27.5008 48.7041 27.5008C52.2113 27.5008 54.8353 30.2336 54.8353 33.5744C54.8353 36.9216 52.0449 39.68 48.6785 39.68Z" fill="white"/>
</g>
<defs>
<linearGradient id="paint0_linear_2016_3766" x1="12.6716" y1="64.214" x2="51.9444" y2="-1.2407" gradientUnits="userSpaceOnUse">
<stop stop-color="#6F01FB"/>
<stop offset="1" stop-color="#FF49D7"/>
</linearGradient>
<clipPath id="clip0_2016_3766">
<rect width="64" height="64" fill="white"/>
</clipPath>
</defs>
</svg>
