<svg width="77" height="64" viewBox="0 0 77 64" fill="none" xmlns="http://www.w3.org/2000/svg">
<g clip-path="url(#clip0_2016_3804)">
<path d="M40.7559 64C23.0613 64 8.67773 49.7052 8.67773 32.0538C8.67773 14.4023 23.0613 0 40.7559 0C58.4505 0 72.8341 14.4023 72.8341 32.0615C72.8341 49.7129 58.4505 64 40.7559 64Z" fill="#FF5226"/>
<path d="M35.7896 4.33215L0 60.0364H16.4087L37.0832 27.9289L36.575 27.6985L30.8462 50.673L42.9814 52.8084L55.4554 37.1694L54.7778 36.8314L50.5659 54.5904L77.0077 49.5669L71.61 40.7104L62.0774 42.8842L63.2016 44.1747L67.6368 25.6245L57.2957 18.7268L43.7668 35.71L44.4367 36.0479L49.9961 13.7954L35.7896 4.33215Z" fill="#FFDD00"/>
<path d="M35.7896 4.33215L0 60.0364H16.4087L37.0832 27.9289L36.575 27.6985L30.8462 50.673L42.9814 52.8084L55.4554 37.1694L54.7778 36.8314L50.5659 54.5904L61.1919 52.5703L67.6445 25.6168L57.3034 18.7191L43.7668 35.71L44.4367 36.0479L49.9961 13.7954L35.7896 4.33215Z" fill="#FFDD00"/>
</g>
<defs>
<clipPath id="clip0_2016_3804">
<rect width="77" height="64" fill="white"/>
</clipPath>
</defs>
</svg>
